<?xml version="1.0" encoding="UTF-8"?>
<svg version="1.1" xmlns="http://www.w3.org/2000/svg" width="1188" height="594">
<path d="M0 0 C392.04 0 784.08 0 1188 0 C1188 196.02 1188 392.04 1188 594 C795.96 594 403.92 594 0 594 C0 397.98 0 201.96 0 0 Z " fill="#FBFBFB" transform="translate(0,0)"/>
<path d="M0 0 C2.4709536 2.8568456 5 6.11577282 5 10 C5.66 10 6.32 10 7 10 C9.33046701 13.6413547 9.30891093 16.7524747 9 21 C8.34 21.99 7.68 22.98 7 24 C7.16130229 29.64557999 10.78200496 34.75560026 14.640625 38.66015625 C17.98677587 41.36571518 19.43426148 42.01824963 23.875 41.875 C26.84452363 41.31889678 26.84452363 41.31889678 28 40 C33.28766925 39.38807389 36.57001537 41.06020236 40.875 43.875 C41.46796875 44.23980469 42.0609375 44.60460937 42.671875 44.98046875 C44.15779891 45.9220104 45.58519064 46.95463641 47 48 C47 48.66 47 49.32 47 50 C48.485 50.495 48.485 50.495 50 51 C49.24170616 59.9478673 49.24170616 59.9478673 46 64 C42.60858101 66.81003288 39.63402788 67.54598261 35.22265625 67.33984375 C18.96025519 64.85332549 4.85055077 51.12366627 -5 38.8125 C-5.46929932 38.23032715 -5.93859863 37.6481543 -6.42211914 37.04833984 C-9.15648512 33.51412531 -10.82907967 30.38429829 -12 26 C-12.66 26 -13.32 26 -14 26 C-17.07024142 19.09195681 -18.64192173 12.44284703 -15.9375 5.125 C-11.41382745 0.16355268 -6.68204604 -2.47483187 0 0 Z " fill="#EB4C63" transform="translate(279,200)"/>
<path d="M0 0 C2.36392412 1.96993677 3.57992385 3.64555624 3.9296875 6.7265625 C3.92453125 7.58378906 3.919375 8.44101562 3.9140625 9.32421875 C3.91921875 10.17886719 3.924375 11.03351563 3.9296875 11.9140625 C3.65119883 14.50646442 2.97075422 16.15186109 1.6640625 18.38671875 C1.0040625 18.38671875 0.3440625 18.38671875 -0.3359375 18.38671875 C0.4890625 19.31484375 1.3140625 20.24296875 2.1640625 21.19921875 C5.06899971 25.29103031 5.38473596 28.7819026 5.16015625 33.72265625 C4.35774802 38.03165164 2.64588126 40.19686612 -0.3359375 43.38671875 C-3.90034168 44.57485348 -6.89068532 44.62859828 -10.6484375 44.69921875 C-11.94394531 44.73660156 -13.23945312 44.77398437 -14.57421875 44.8125 C-19.66349047 44.23645575 -22.53686311 42.06585485 -26.2109375 38.63671875 C-28.35756842 34.34345691 -27.81129502 29.94860776 -26.4609375 25.51171875 C-25.3359375 23.38671875 -25.3359375 23.38671875 -23.3359375 21.38671875 C-23.65630608 19.06404658 -24.39738901 17.25658614 -25.3984375 15.13671875 C-26.64699061 11.4742963 -26.97925356 8.21561194 -26.3359375 4.38671875 C-23.97706068 0.64505207 -21.51746322 -1.98998819 -17.1484375 -3.23828125 C-9.92012379 -4.20205641 -6.09020531 -4.03991707 0 0 Z " fill="#F75B3D" transform="translate(566.3359375,251.61328125)"/>
<path d="M0 0 C3.05517804 1.58416639 4.87613616 3.26477925 6.625 6.25 C6.98828125 8.94140625 6.98828125 8.94140625 6.9375 11.8125 C6.93363281 12.76253906 6.92976562 13.71257812 6.92578125 14.69140625 C6.625 17.25 6.625 17.25 4.625 20.25 C3.965 20.25 3.305 20.25 2.625 20.25 C3.45 21.178125 4.275 22.10625 5.125 23.0625 C8.04489665 27.16704043 8.34871387 30.69886174 8.1171875 35.65625 C7.32815399 39.81433138 5.77943842 41.4540205 2.625 44.25 C-2.71241705 47.6692828 -9.31839478 46.99272751 -15.375 46.25 C-18.93964332 44.92045609 -21.20683264 43.39353204 -23.375 40.25 C-25.12449091 34.76174934 -24.91630153 29.45966814 -22.375 24.25 C-20.75 22.375 -20.75 22.375 -19.375 21.25 C-20.035 20.59 -20.695 19.93 -21.375 19.25 C-23.87150936 15.50523596 -24.05455306 12.57365633 -23.375 8.25 C-22.01397793 4.08687366 -20.75257336 2.53695575 -17.25 -0.125 C-11.46464893 -3.02376538 -5.79813377 -2.68097194 0 0 Z " fill="#F55C3C" transform="translate(695.375,249.75)"/>
<path d="M0 0 C4.71428571 3.42857143 4.71428571 3.42857143 6 6 C6.94101877 17.23793566 6.94101877 17.23793566 3 22 C3.66 22.598125 4.32 23.19625 5 23.8125 C7.91057743 28.45123278 7.79662426 32.65698478 7 38 C4.74768597 42.00411383 2.06326599 43.95698531 -2 46 C-7.6815403 46.73760348 -14.65489835 47.46527328 -19.6875 44.25 C-20.450625 43.5075 -21.21375 42.765 -22 42 C-22.928125 41.13375 -22.928125 41.13375 -23.875 40.25 C-25.99152317 36.01695366 -25.48570029 31.64390869 -24.1875 27.25 C-22.98131957 24.9646055 -21.63086655 23.00151804 -20 21 C-20.66 20.38125 -21.32 19.7625 -22 19.125 C-24.79514062 14.75759279 -24.35288244 11.04817939 -24 6 C-23.34 6 -22.68 6 -22 6 C-21.814375 5.236875 -21.62875 4.47375 -21.4375 3.6875 C-19.78476849 0.59761066 -18.26157872 -0.3040878 -15 -1.5 C-9.80568244 -2.79857939 -4.76742591 -2.57698698 0 0 Z " fill="#F35D40" transform="translate(973,250)"/>
<path d="M0 0 C0 2.97 0 5.94 0 9 C-0.68707031 9.17015625 -1.37414062 9.3403125 -2.08203125 9.515625 C-3.43361328 9.87914062 -3.43361328 9.87914062 -4.8125 10.25 C-5.70582031 10.48203125 -6.59914063 10.7140625 -7.51953125 10.953125 C-10.37646099 12.15888432 -11.38369034 13.40101703 -13 16 C-12.28714844 15.94199219 -11.57429688 15.88398438 -10.83984375 15.82421875 C-2.03969433 15.40967605 -2.03969433 15.40967605 2.0625 18.3125 C6.84782189 22.69056045 6.84782189 22.69056045 7.3359375 26.890625 C7.41658632 33.82642388 7.43461985 38.51507545 3 44 C-0.78085009 47.68632884 -3.88128869 48.3036138 -9 48.5 C-14.11720994 48.31000458 -17.18069828 47.62833663 -21 44 C-26.87473374 36.3787238 -26.73187197 28.79595397 -25.7265625 19.4609375 C-24.58443669 13.19002032 -22.14456653 8.4131266 -17.03515625 4.4921875 C-11.19003422 0.68251765 -7.02058687 -0.13501129 0 0 Z " fill="#F55F41" transform="translate(477,248)"/>
<path d="M0 0 C3.63 0 7.26 0 11 0 C11 9.57 11 19.14 11 29 C12.65 29 14.3 29 16 29 C16 31.97 16 34.94 16 38 C14.35 38 12.7 38 11 38 C11 41.3 11 44.6 11 48 C7.37 48 3.74 48 0 48 C0 44.7 0 41.4 0 38 C-6.27 38 -12.54 38 -19 38 C-19 28.44970196 -14.79532705 22.82630888 -9.82788086 15.0625 C-7.9099777 12.06315587 -6.05789931 9.1100087 -4.3984375 5.95703125 C-3.0625 3.5 -3.0625 3.5 0 0 Z " fill="#F95635" transform="translate(930,248)"/>
<path d="M0 0 C3.63 0 7.26 0 11 0 C11 9.57 11 19.14 11 29 C12.65 29 14.3 29 16 29 C16 31.97 16 34.94 16 38 C14.35 38 12.7 38 11 38 C11 41.3 11 44.6 11 48 C7.37 48 3.74 48 0 48 C0 44.7 0 41.4 0 38 C-6.27 38 -12.54 38 -19 38 C-19 29.03095238 -19 29.03095238 -16.25 25.1875 C-13.70006217 21.55795139 -11.38878095 17.96047813 -9.25 14.0703125 C-8.7559668 13.20510986 -8.26193359 12.33990723 -7.75292969 11.44848633 C-6.76476761 9.71535022 -5.80592681 7.96510517 -4.87988281 6.19799805 C-3.453125 3.76953125 -3.453125 3.76953125 0 0 Z " fill="#F95838" transform="translate(894,248)"/>
<path d="M0 0 C8.91 0 17.82 0 27 0 C27 2.97 27 5.94 27 9 C21.06 9 15.12 9 9 9 C9 10.98 9 12.96 9 15 C9.56847656 14.95359375 10.13695312 14.9071875 10.72265625 14.859375 C16.46608516 14.59090086 20.57900196 15.14021674 25 19 C28.70556003 23.75071799 29.65755292 27.49234288 29.3828125 33.5 C28.56859922 38.81731121 26.71296536 42.62962771 22.5 46 C16.15686653 47.81232385 9.76713217 47.93884842 3.5 45.8125 C0.62418876 43.72753685 -1.18536018 42.07092892 -3 39 C-3.25 35.1875 -3.25 35.1875 -3 32 C0.3 32 3.6 32 7 32 C7.33 33.98 7.66 35.96 8 38 C10.97 38 13.94 38 17 38 C17.05391993 36.20866022 17.09275571 34.41686101 17.125 32.625 C17.14820313 31.62726563 17.17140625 30.62953125 17.1953125 29.6015625 C17.27216848 26.83737827 17.27216848 26.83737827 15 25 C12.34462628 24.43479997 9.70855287 24.26211802 7 24 C7 24.66 7 25.32 7 26 C1.375 26.25 1.375 26.25 -2 24 C-2.68279564 15.94301149 -1.14755351 7.96115248 0 0 Z " fill="#F65B3A" transform="translate(579,249)"/>
<path d="M0 0 C3.96 0 7.92 0 12 0 C12 9.24 12 18.48 12 28 C13.65 28 15.3 28 17 28 C17 30.97 17 33.94 17 37 C15.35 37 13.7 37 12 37 C12 40.3 12 43.6 12 47 C8.37 47 4.74 47 1 47 C1 43.7 1 40.4 1 37 C-5.27 37 -11.54 37 -18 37 C-18 34.36 -18 31.72 -18 29 C-17.34 29 -16.68 29 -16 29 C-15.78214844 28.19691406 -15.56429687 27.39382813 -15.33984375 26.56640625 C-13.61535012 21.97613603 -11.16649333 18.07605002 -8.5625 13.9375 C-7.58457866 12.36331651 -6.60671255 10.7890987 -5.62890625 9.21484375 C-5.19650635 8.52511475 -4.76410645 7.83538574 -4.31860352 7.12475586 C-2.85421256 4.76508275 -1.42882595 2.38137659 0 0 Z " fill="#F95634" transform="translate(724,249)"/>
<path d="M0 0 C2.45419987 2.04516656 3.59398123 3.72094668 3.9296875 6.91015625 C3.92453125 7.85117187 3.919375 8.7921875 3.9140625 9.76171875 C3.92179688 11.16550781 3.92179688 11.16550781 3.9296875 12.59765625 C3.65041511 15.53001637 2.88555266 17.720768 1.6640625 20.38671875 C1.0040625 20.38671875 0.3440625 20.38671875 -0.3359375 20.38671875 C-0.6040625 20.969375 -0.8721875 21.55203125 -1.1484375 22.15234375 C-2.35074741 24.41458476 -3.67419663 26.19248193 -5.3359375 28.13671875 C-5.8515625 28.7503125 -6.3671875 29.36390625 -6.8984375 29.99609375 C-8.3359375 31.38671875 -8.3359375 31.38671875 -10.3359375 31.38671875 C-10.6659375 32.70671875 -10.9959375 34.02671875 -11.3359375 35.38671875 C-5.7259375 35.38671875 -0.1159375 35.38671875 5.6640625 35.38671875 C5.6640625 38.35671875 5.6640625 41.32671875 5.6640625 44.38671875 C-5.2259375 44.38671875 -16.1159375 44.38671875 -27.3359375 44.38671875 C-27.3359375 36.38671875 -27.3359375 36.38671875 -26.03833008 34.12084961 C-25.44173584 33.53698486 -24.8451416 32.95312012 -24.23046875 32.3515625 C-23.57626953 31.68705078 -22.92207031 31.02253906 -22.24804688 30.33789062 C-21.20874023 29.34112305 -21.20874023 29.34112305 -20.1484375 28.32421875 C-11.59901048 20.59910036 -11.59901048 20.59910036 -6.8984375 10.57421875 C-7.16548275 8.18737337 -7.16548275 8.18737337 -9.3359375 6.38671875 C-11.91947968 6.21984427 -11.91947968 6.21984427 -14.3359375 6.38671875 C-14.9959375 8.69671875 -15.6559375 11.00671875 -16.3359375 13.38671875 C-20.2959375 13.38671875 -24.2559375 13.38671875 -28.3359375 13.38671875 C-27.82637707 7.01721332 -26.09418719 2.96701685 -21.3984375 -1.42578125 C-14.12784578 -5.61187951 -6.64018681 -4.40474543 0 0 Z " fill="#F65938" transform="translate(806.3359375,251.61328125)"/>
<path d="M0 0 C2.94355387 2.15771822 4.49808974 4.14097226 5.23046875 7.74609375 C5.39591257 15.38959814 3.52558547 19.43893246 -1.2734375 25.265625 C-2.06621094 26.25691406 -2.85898437 27.24820312 -3.67578125 28.26953125 C-5.84822102 30.95676717 -8.05795699 33.61376196 -10.2734375 36.265625 C-4.6634375 36.265625 0.9465625 36.265625 6.7265625 36.265625 C6.7265625 39.235625 6.7265625 42.205625 6.7265625 45.265625 C-4.1634375 45.265625 -15.0534375 45.265625 -26.2734375 45.265625 C-26.2734375 37.265625 -26.2734375 37.265625 -24.76953125 35.015625 C-24.09019531 34.438125 -23.41085937 33.860625 -22.7109375 33.265625 C-21.98132813 32.60691406 -21.25171875 31.94820313 -20.5 31.26953125 C-19.76523437 30.60824219 -19.03046875 29.94695312 -18.2734375 29.265625 C-15.84079785 26.67908365 -13.53923335 23.99887873 -11.2734375 21.265625 C-10.76296875 20.65589844 -10.2525 20.04617188 -9.7265625 19.41796875 C-7.45696605 16.51722048 -6.30885754 14.58440539 -5.8984375 10.890625 C-5.99427083 8.34479167 -5.99427083 8.34479167 -7.2734375 7.265625 C-9.27302114 7.22481717 -11.27389004 7.22308144 -13.2734375 7.265625 C-13.9334375 9.575625 -14.5934375 11.885625 -15.2734375 14.265625 C-19.2334375 14.265625 -23.1934375 14.265625 -27.2734375 14.265625 C-26.58837736 7.27801157 -24.6687114 2.84343316 -19.2734375 -1.734375 C-12.43279466 -3.89986152 -6.31088011 -3.27230821 0 0 Z " fill="#EF5F42" transform="translate(769.2734375,250.734375)"/>
<path d="M0 0 C2.94355387 2.15771822 4.49808974 4.14097226 5.23046875 7.74609375 C5.39591257 15.38959814 3.52558547 19.43893246 -1.2734375 25.265625 C-2.06621094 26.25691406 -2.85898437 27.24820312 -3.67578125 28.26953125 C-5.84822102 30.95676717 -8.05795699 33.61376196 -10.2734375 36.265625 C-4.6634375 36.265625 0.9465625 36.265625 6.7265625 36.265625 C6.7265625 39.235625 6.7265625 42.205625 6.7265625 45.265625 C-4.1634375 45.265625 -15.0534375 45.265625 -26.2734375 45.265625 C-26.2734375 37.265625 -26.2734375 37.265625 -24.76953125 35.015625 C-24.09019531 34.438125 -23.41085937 33.860625 -22.7109375 33.265625 C-21.98132813 32.60691406 -21.25171875 31.94820313 -20.5 31.26953125 C-19.76523437 30.60824219 -19.03046875 29.94695312 -18.2734375 29.265625 C-15.84079785 26.67908365 -13.53923335 23.99887873 -11.2734375 21.265625 C-10.76296875 20.65589844 -10.2525 20.04617188 -9.7265625 19.41796875 C-7.45696605 16.51722048 -6.30885754 14.58440539 -5.8984375 10.890625 C-5.99427083 8.34479167 -5.99427083 8.34479167 -7.2734375 7.265625 C-9.27302114 7.22481717 -11.27389004 7.22308144 -13.2734375 7.265625 C-13.9334375 9.575625 -14.5934375 11.885625 -15.2734375 14.265625 C-19.2334375 14.265625 -23.1934375 14.265625 -27.2734375 14.265625 C-26.58837736 7.27801157 -24.6687114 2.84343316 -19.2734375 -1.734375 C-12.43279466 -3.89986152 -6.31088011 -3.27230821 0 0 Z " fill="#F55D3E" transform="translate(513.2734375,250.734375)"/>
<path d="M0 0 C4.22107386 2.33600585 7.32570534 4.98855801 10 9 C10.56571562 13.74613366 10.60176211 18.37170253 8.9375 22.875 C5.78727607 26.33008431 2.65985079 29.45995439 -2.05859375 30.41796875 C-6.54816142 30.59619355 -9.54085194 29.80471464 -13 27 C-16.67095083 23.19385835 -18.79510669 20.13089046 -19.3125 14.75 C-18.91441944 9.97303327 -17.79084747 7.87617704 -15 4 C-12.75 3.0625 -12.75 3.0625 -11 3 C-11 2.34 -11 1.68 -11 1 C-7.22657287 -0.25780904 -3.90089425 -0.74830654 0 0 Z " fill="#8E8E90" transform="translate(715,177)"/>
<path d="M0 0 C3.60087138 1.75771349 4.61076626 3.48620622 6.3046875 7.125 C7.25413805 17.2260989 7.25413805 17.2260989 5.3046875 21.125 C4.6446875 21.125 3.9846875 21.125 3.3046875 21.125 C3.0571875 21.74375 2.8096875 22.3625 2.5546875 23 C1.03335037 25.58627312 0.0696359 26.03432831 -2.6953125 27.125 C-8.01663189 27.81628923 -12.40943886 27.75665723 -17.2578125 25.375 C-20.42357168 22.45276076 -21.56224953 20.56521096 -21.9609375 16.25 C-21.95578125 15.21875 -21.950625 14.1875 -21.9453125 13.125 C-21.95046875 12.09375 -21.955625 11.0625 -21.9609375 10 C-21.56224953 5.68478904 -20.42357168 3.79723924 -17.2578125 0.875 C-11.72274781 -1.84397915 -5.87186041 -1.90622715 0 0 Z " fill="#8F8F90" transform="translate(445.6953125,178.875)"/>
<path d="M0 0 C0.66 0 1.32 0 2 0 C2.66 2.31 3.32 4.62 4 7 C4.66 7 5.32 7 6 7 C6.33 5.68 6.66 4.36 7 3 C8.60031344 6.20062687 7.03173691 8.72271806 6 12 C9.96 12 13.92 12 18 12 C18 10.02 18 8.04 18 6 C20 4 20 4 22.4375 3.6875 C25 4 25 4 26.8125 5.1875 C28.42849175 7.65401372 28.30324584 9.08286044 28 12 C26.671875 14.21875 26.671875 14.21875 24.75 16.5 C24.03199219 17.36367188 23.31398438 18.22734375 22.57421875 19.1171875 C20.69664434 21.21984291 18.80363963 23.24775391 16.83203125 25.2578125 C16.2915918 25.81662109 15.75115234 26.37542969 15.19433594 26.95117188 C14.12902589 28.04389565 13.0480849 29.12165516 11.95019531 30.18164062 C7.93670249 34.29124945 7.24222962 37.27344346 7 43 C6.01 43 5.02 43 4 43 C4 40.03 4 37.06 4 34 C-1.61 34 -7.22 34 -13 34 C-11.13683352 30.27366705 -9.23080234 27.72152461 -6.5625 24.5625 C-0.32824712 17.40316373 -0.32824712 17.40316373 1.25 8.375 C1.23453125 7.43398438 1.2190625 6.49296875 1.203125 5.5234375 C1.09113902 2.87493401 1.09113902 2.87493401 0 0 Z " fill="#FDF9F6" transform="translate(772,253)"/>
<path d="M0 0 C0 15.51 0 31.02 0 47 C-3.63 47 -7.26 47 -11 47 C-11 35.78 -11 24.56 -11 13 C-12.65 13.66 -14.3 14.32 -16 15 C-19.3125 15.125 -19.3125 15.125 -22 15 C-22 12.36 -22 9.72 -22 7 C-6.98473282 0 -6.98473282 0 0 0 Z " fill="#FC5633" transform="translate(864,249)"/>
<path d="M0 0 C0 15.51 0 31.02 0 47 C-3.63 47 -7.26 47 -11 47 C-11 35.78 -11 24.56 -11 13 C-14.63 13.66 -18.26 14.32 -22 15 C-22 12.36 -22 9.72 -22 7 C-14.7935785 3.20025048 -8.25276407 0 0 0 Z " fill="#FD5531" transform="translate(635,249)"/>
<path d="M0 0 C3.3 0 6.6 0 10 0 C10 3.96 10 7.92 10 12 C13.63 12 17.26 12 21 12 C21 14.97 21 17.94 21 21 C16.05 21.495 16.05 21.495 11 22 C10.67 25.96 10.34 29.92 10 34 C6.7 34 3.4 34 0 34 C0 30.04 0 26.08 0 22 C-3.63 22 -7.26 22 -11 22 C-11 18.7 -11 15.4 -11 12 C-7.37 12 -3.74 12 0 12 C0 8.04 0 4.08 0 0 Z " fill="#FB5533" transform="translate(427,257)"/>
<path d="M0 0 C8 0 8 0 9.71850586 1.25341797 C10.04729736 1.82721191 10.37608887 2.40100586 10.71484375 2.9921875 C11.09060547 3.61480469 11.46636719 4.23742187 11.85351562 4.87890625 C12.21123047 5.53761719 12.56894531 6.19632813 12.9375 6.875 C13.32228516 7.52597656 13.70707031 8.17695313 14.10351562 8.84765625 C15.4796575 11.19362746 16.78361296 13.56722592 18 16 C18.33 10.72 18.66 5.44 19 0 C21.31 0 23.62 0 26 0 C26 9.24 26 18.48 26 28 C18 28 18 28 15.7578125 25.76953125 C14.94957031 24.30580078 14.94957031 24.30580078 14.125 22.8125 C13.57070313 21.84957031 13.01640625 20.88664062 12.4453125 19.89453125 C11.14939384 17.29919144 10.02182325 14.71328796 9 12 C8.34 12 7.68 12 7 12 C7 17.61 7 23.22 7 29 C4.69 29 2.38 29 0 29 C0 19.43 0 9.86 0 0 Z " fill="#919192" transform="translate(523,178)"/>
<path d="M0 0 C7 0 7 0 9.1796875 2.046875 C9.73914063 2.93890625 10.29859375 3.8309375 10.875 4.75 C11.44992187 5.63171875 12.02484375 6.5134375 12.6171875 7.421875 C13.82725167 9.67792683 14.54439366 11.50000626 15 14 C15.66 14 16.32 14 17 14 C17.33 9.38 17.66 4.76 18 0 C20.31 0 22.62 0 25 0 C25 9.24 25 18.48 25 28 C18 28 18 28 16.28735352 26.62304688 C15.90506592 25.99462891 15.52277832 25.36621094 15.12890625 24.71875 C14.48598633 23.70361328 14.48598633 23.70361328 13.83007812 22.66796875 C13.41177734 21.95253906 12.99347656 21.23710937 12.5625 20.5 C12.11712891 19.78457031 11.67175781 19.06914062 11.21289062 18.33203125 C10.11945415 16.56842404 9.05665134 14.7858896 8 13 C7.67 18.28 7.34 23.56 7 29 C4.69 29 2.38 29 0 29 C0 19.43 0 9.86 0 0 Z " fill="#8D8D8F" transform="translate(458,178)"/>
<path d="M0 0 C3.8053125 -0.12375 3.8053125 -0.12375 7.6875 -0.25 C8.87218872 -0.30462402 8.87218872 -0.30462402 10.08081055 -0.36035156 C13.84089648 -0.41930347 15.65333589 -0.21139174 18.953125 1.80078125 C21.78956679 4.84833225 22.07237708 6.8745062 22 11 C20.1875 13.9375 20.1875 13.9375 18 16 C17.34 16 16.68 16 16 16 C16.3609375 16.69867188 16.721875 17.39734375 17.09375 18.1171875 C17.5578125 19.02726562 18.021875 19.93734375 18.5 20.875 C18.9640625 21.77992188 19.428125 22.68484375 19.90625 23.6171875 C21 26 21 26 21 28 C18.36 28 15.72 28 13 28 C12.73445312 27.36191406 12.46890625 26.72382813 12.1953125 26.06640625 C11.84210937 25.24011719 11.48890625 24.41382813 11.125 23.5625 C10.77695312 22.73878906 10.42890625 21.91507813 10.0703125 21.06640625 C9.1755063 18.84253285 9.1755063 18.84253285 7 18 C7 21.3 7 24.6 7 28 C4.69 28 2.38 28 0 28 C0 18.76 0 9.52 0 0 Z " fill="#8A8A8C" transform="translate(731,178)"/>
<path d="M0 0 C0 2.97 0 5.94 0 9 C-0.68707031 9.17015625 -1.37414062 9.3403125 -2.08203125 9.515625 C-3.43361328 9.87914062 -3.43361328 9.87914062 -4.8125 10.25 C-5.70582031 10.48203125 -6.59914063 10.7140625 -7.51953125 10.953125 C-10.37646099 12.15888432 -11.38369034 13.40101703 -13 16 C-12.22914063 15.98839844 -11.45828125 15.97679687 -10.6640625 15.96484375 C-9.66117187 15.95582031 -8.65828125 15.94679688 -7.625 15.9375 C-6.62726563 15.92589844 -5.62953125 15.91429687 -4.6015625 15.90234375 C-2 16 -2 16 0 17 C0.625 19.0625 0.625 19.0625 1 21 C-3.98229776 22.91626837 -8.72684667 23.5547115 -14 24 C-14.2475 25.27875 -14.495 26.5575 -14.75 27.875 C-15.72506802 31.79601821 -15.72506802 31.79601821 -17.9375 33.4375 C-18.618125 33.623125 -19.29875 33.80875 -20 34 C-21.485 34.495 -21.485 34.495 -23 35 C-24.86715507 33.13284493 -24.13245683 30.49606175 -24.13671875 28.015625 C-24.13091797 26.83226562 -24.13091797 26.83226562 -24.125 25.625 C-24.12886719 24.84382813 -24.13273437 24.06265625 -24.13671875 23.2578125 C-24.13100915 19.9234054 -24.06131005 17.18393014 -23 14 C-22.34 14 -21.68 14 -21 14 C-20.7525 13.113125 -20.505 12.22625 -20.25 11.3125 C-18.69906606 7.20252507 -17.18260177 4.18878092 -13.20703125 2.0234375 C-8.6716201 0.14611064 -4.87704738 -0.30481546 0 0 Z " fill="#FB5432" transform="translate(477,248)"/>
<path d="M0 0 C2.371875 -0.04125 4.74375 -0.0825 7.1875 -0.125 C7.92508545 -0.14320801 8.6626709 -0.16141602 9.42260742 -0.18017578 C13.4088469 -0.21355145 16.45929984 0.13716895 20 2 C22.3724011 5.16320147 22.32140164 8.14318026 22 12 C21.13310995 14.60067015 20.55425367 15.65723786 18.21875 17.1015625 C14.4967051 18.60872857 10.9810863 18.11709077 7 18 C7 21.63 7 25.26 7 29 C4.69 29 2.38 29 0 29 C0 19.43 0 9.86 0 0 Z " fill="#8F8F90" transform="translate(644,178)"/>
<path d="M0 0 C3.5578125 -0.12375 3.5578125 -0.12375 7.1875 -0.25 C7.92508545 -0.28641602 8.6626709 -0.32283203 9.42260742 -0.36035156 C13.02641563 -0.42069892 14.87966133 -0.07776224 17.92578125 1.890625 C20.84581317 4.86014899 20.97166316 5.64295576 21.3125 9.9375 C21.27149697 13.70977911 21.27149697 13.70977911 19.1875 15.9375 C14.97610392 17.98303524 11.6377182 18.08750412 7 18 C7 21.3 7 24.6 7 28 C4.69 28 2.38 28 0 28 C0 18.76 0 9.52 0 0 Z " fill="#88888A" transform="translate(671,178)"/>
<path d="M0 0 C2.31 0 4.62 0 7 0 C7.33 6.93 7.66 13.86 8 21 C10.31 21 12.62 21 15 21 C16.58403524 19.41596476 16.21974935 17.7228362 16.31640625 15.52734375 C16.35830078 14.62822266 16.40019531 13.72910156 16.44335938 12.80273438 C16.48267578 11.85720703 16.52199219 10.91167969 16.5625 9.9375 C16.60568359 8.98810547 16.64886719 8.03871094 16.69335938 7.06054688 C16.79979276 4.70718647 16.90181008 2.35371646 17 0 C19.31 0 21.62 0 24 0 C24.17520981 3.54103514 24.28114745 7.08094884 24.375 10.625 C24.45041016 12.12353516 24.45041016 12.12353516 24.52734375 13.65234375 C24.69323945 22.00242717 24.69323945 22.00242717 21.359375 25.67578125 C18.28730941 28.18244156 15.87548221 28.7313183 11.875 28.5625 C10.86179687 28.54316406 9.84859375 28.52382812 8.8046875 28.50390625 C5.63129729 27.93375676 4.25846253 27.28355656 2 25 C-0.8464821 20.31852158 -0.22224835 14.9800546 -0.125 9.6875 C-0.11597656 8.75615234 -0.10695313 7.82480469 -0.09765625 6.86523438 C-0.07418263 4.5765564 -0.04134729 2.28841328 0 0 Z " fill="#8B8B8B" transform="translate(614,178)"/>
<path d="M0 0 C1.546875 -0.02900391 1.546875 -0.02900391 3.125 -0.05859375 C6.69005181 0.55657144 7.88173865 1.54016656 10 4.4375 C10 5.7575 10 7.0775 10 8.4375 C7.69 8.4375 5.38 8.4375 3 8.4375 C2.67 7.7775 2.34 7.1175 2 6.4375 C0.68 6.4375 -0.64 6.4375 -2 6.4375 C-2.33 7.7575 -2.66 9.0775 -3 10.4375 C-2.11248047 10.56705078 -2.11248047 10.56705078 -1.20703125 10.69921875 C2.92455517 11.43387278 5.63797457 12.1840822 9.125 14.625 C11 17.4375 11 17.4375 11.125 21 C10 24.4375 10 24.4375 8.125 26.875 C3.46675418 29.20412291 -0.89081871 29.22352789 -6 28.4375 C-8.6875 26.6875 -8.6875 26.6875 -10 24.4375 C-10 23.1175 -10 21.7975 -10 20.4375 C-7.69 20.4375 -5.38 20.4375 -3 20.4375 C-2.67 21.0975 -2.34 21.7575 -2 22.4375 C-0.68 22.4375 0.64 22.4375 2 22.4375 C1.83986465 20.48908651 1.83986465 20.48908651 1 18.4375 C-1.0072589 17.15649229 -1.0072589 17.15649229 -3.4375 16.3125 C-7.832021 14.605479 -7.832021 14.605479 -10 12.4375 C-10.3359375 10.37890625 -10.3359375 10.37890625 -10.375 8 C-10.40335938 7.21753906 -10.43171875 6.43507812 -10.4609375 5.62890625 C-10 3.4375 -10 3.4375 -8.3515625 1.6796875 C-5.41146711 0.12661386 -3.3160516 0.00414506 0 0 Z " fill="#8E8E8F" transform="translate(598,177.5625)"/>
<path d="M0 0 C4.71428571 3.42857143 4.71428571 3.42857143 6 6 C6.9424571 15.73357328 6.9424571 15.73357328 4 19.6875 C3.34 20.120625 2.68 20.55375 2 21 C2 20.01 2 19.02 2 18 C1.34 17.67 0.68 17.34 0 17 C1.32 17 2.64 17 4 17 C2.42105792 14.63158688 1.0245738 12.93254772 -1 11 C-1.28875 11.94875 -1.5775 12.8975 -1.875 13.875 C-3 17 -3 17 -5 19 C-7.68839385 19.26991906 -10.29141936 19.08737357 -13 19 C-13.33 19.99 -13.66 20.98 -14 22 C-15.48228178 16.07087286 -15.79433236 7.58866472 -13 2 C-15.31 2.33 -17.62 2.66 -20 3 C-20 3.66 -20 4.32 -20 5 C-20.66 4.67 -21.32 4.34 -22 4 C-20.36599057 1.27665095 -19.22391342 0.10414577 -16.3125 -1.25 C-10.63554311 -2.53534873 -5.27621358 -2.85200734 0 0 Z " fill="#F25D3F" transform="translate(973,250)"/>
<path d="M0 0 C0 0.99 0 1.98 0 3 C0.33 3.99 0.66 4.98 1 6 C2.65 6 4.3 6 6 6 C6.33 5.34 6.66 4.68 7 4 C10.01907751 2.05916446 12.43644261 1.4517604 16 2 C17.875 3.625 17.875 3.625 19 6 C18.6875 9.25 18.6875 9.25 18 12 C18.66 12 19.32 12 20 12 C20.33 12.66 20.66 13.32 21 14 C21.99 14 22.98 14 24 14 C24.042721 15.66611905 24.04063832 17.33382885 24 19 C22.04782483 20.95217517 18.54255387 20.49659681 15.875 20.6875 C14.57304688 20.79449219 13.27109375 20.90148437 11.9296875 21.01171875 C6.68567659 20.99608055 2.57161385 20.37012489 -1.4375 16.875 C-3.49035422 13.09774824 -3.58675505 10.20932968 -3 6 C-1.59375 1.59375 -1.59375 1.59375 0 0 Z " fill="#FA5838" transform="translate(542,274)"/>
<path d="M0 0 C5.61 0 11.22 0 17 0 C17 1.65 17 3.3 17 5 C13.7 5 10.4 5 7 5 C7 6.98 7 8.96 7 11 C9.97 11 12.94 11 16 11 C16 12.98 16 14.96 16 17 C13.03 17 10.06 17 7 17 C7 18.98 7 20.96 7 23 C10.3 23 13.6 23 17 23 C17 24.65 17 26.3 17 28 C11.39 28 5.78 28 0 28 C0 18.76 0 9.52 0 0 Z " fill="#8A8A8B" transform="translate(555,178)"/>
<path d="M0 0 C-0.33 5.61 -0.66 11.22 -1 17 C0.44375 16.87625 1.8875 16.7525 3.375 16.625 C4.59316406 16.52058594 4.59316406 16.52058594 5.8359375 16.4140625 C8.20334191 16.17107412 8.20334191 16.17107412 10 14 C10.71408334 12.01643517 11.38617742 10.01684563 12 8 C12.33 8.99 12.66 9.98 13 11 C13.66 11 14.32 11 15 11 C15.66 9.68 16.32 8.36 17 7 C17 9.64 17 12.28 17 15 C16.01 15.495 16.01 15.495 15 16 C15.46800711 20.05606165 15.87953208 23.46588679 18 27 C15.525 28.485 15.525 28.485 13 30 C12.505 27.525 12.505 27.525 12 25 C10.68 24.67 9.36 24.34 8 24 C8 23.01 8 22.02 8 21 C7.34 21 6.68 21 6 21 C6 21.66 6 22.32 6 23 C1.25 24.125 1.25 24.125 -1 23 C-1 23.66 -1 24.32 -1 25 C-1.99 25 -2.98 25 -4 25 C-4.061875 24.2575 -4.12375 23.515 -4.1875 22.75 C-5.24560475 19.16872239 -7.03252236 18.15142129 -10 16 C-11.26237731 13.47524538 -11.09856404 11.68799534 -11.0625 8.875 C-11.05347656 7.96492188 -11.04445313 7.05484375 -11.03515625 6.1171875 C-11.02355469 5.41851562 -11.01195312 4.71984375 -11 4 C-9.68 3.67 -8.36 3.34 -7 3 C-7 2.34 -7 1.68 -7 1 C-4 0 -4 0 0 0 Z " fill="#FC5530" transform="translate(960,252)"/>
<path d="M0 0 C0.99 0.66 1.98 1.32 3 2 C3 2.99 3 3.98 3 5 C3.66 5 4.32 5 5 5 C5.19491452 6.45736087 5.38069358 7.91594593 5.5625 9.375 C5.66691406 10.18710937 5.77132812 10.99921875 5.87890625 11.8359375 C6 14 6 14 5 16 C4.34 16 3.68 16 3 16 C3.825 16.928125 4.65 17.85625 5.5 18.8125 C8.97180293 23.56544711 8.46000732 28.34702113 8 34 C3.01770224 35.91626837 -1.72684667 36.5547115 -7 37 C-7 36.34 -7 35.68 -7 35 C-6.01 34.34 -5.02 33.68 -4 33 C-3.34459879 30.87863207 -3.34459879 30.87863207 -3.1875 28.5 C-3.05408203 27.30890625 -3.05408203 27.30890625 -2.91796875 26.09375 C-2.77151494 23.77589698 -2.77151494 23.77589698 -5 22 C-5.8125 19.6875 -5.8125 19.6875 -6 17 C-5.525625 16.278125 -5.05125 15.55625 -4.5625 14.8125 C-2.51159835 11.12087702 -2.88979607 8.34387545 -3.1875 4.20703125 C-3.125625 3.47871094 -3.06375 2.75039063 -3 2 C-2.01 1.34 -1.02 0.68 0 0 Z " fill="#F95634" transform="translate(695,254)"/>
<path d="M0 0 C3.63 0 7.26 0 11 0 C11 9.57 11 19.14 11 29 C12.65 29 14.3 29 16 29 C16 31.97 16 34.94 16 38 C14.35 38 12.7 38 11 38 C11 41.3 11 44.6 11 48 C7.37 48 3.74 48 0 48 C0 44.7 0 41.4 0 38 C0.99 38 1.98 38 3 38 C3 35.36 3 32.72 3 30 C4.65614657 29.61781233 6.32457024 29.28604898 8 29 C8.33 29.33 8.66 29.66 9 30 C9 21.09 9 12.18 9 3 C6.03 2.67 3.06 2.34 0 2 C-0.20625 2.78375 -0.4125 3.5675 -0.625 4.375 C-2.4731339 9.24735302 -4.9303756 13.77926645 -8 18 C-8.66 18 -9.32 18 -10 18 C-10.33 19.32 -10.66 20.64 -11 22 C-11.66 22 -12.32 22 -13 22 C-11.25048783 17.06775948 -8.73158263 12.66600293 -6.0625 8.1875 C-5.63904297 7.39923828 -5.21558594 6.61097656 -4.77929688 5.79882812 C-3.41015625 3.54296875 -3.41015625 3.54296875 0 0 Z " fill="#FC5634" transform="translate(930,248)"/>
<path d="M0 0 C7.26 0 14.52 0 22 0 C22 1.65 22 3.3 22 5 C19.36 5 16.72 5 14 5 C14 12.92 14 20.84 14 29 C11.69 29 9.38 29 7 29 C7 21.41 7 13.82 7 6 C4.69 6 2.38 6 0 6 C0 4.02 0 2.04 0 0 Z " fill="#909091" transform="translate(757,178)"/>
<path d="M0 0 C1.32 0 2.64 0 4 0 C4 3 4 3 2.75 4.6875 C1 6 1 6 -3 6 C-2.525625 6.4125 -2.05125 6.825 -1.5625 7.25 C0 9 0 9 1 13 C6.28 13.33 11.56 13.66 17 14 C17 15.98 17 17.96 17 20 C7.1 20 -2.8 20 -13 20 C-13 15 -13 15 -11.625 13.5 C-10.820625 12.7575 -10.820625 12.7575 -10 12 C-9.690625 11.175 -9.38125 10.35 -9.0625 9.5 C-7.82622055 6.59110717 -6.71590758 5.56370436 -4 4 C-3.01 4 -2.02 4 -1 4 C-0.67 2.68 -0.34 1.36 0 0 Z " fill="#FD5432" transform="translate(502,275)"/>
<path d="M0 0 C2.31 0 4.62 0 7 0 C7 9.24 7 18.48 7 28 C-1 28 -1 28 -3.09375 25.91796875 C-3.78984375 24.56638672 -3.78984375 24.56638672 -4.5 23.1875 C-4.9846875 22.29417969 -5.469375 21.40085938 -5.96875 20.48046875 C-7 18 -7 18 -7 15 C-6.34 15 -5.68 15 -5 15 C-5.33 13.68 -5.66 12.36 -6 11 C-3 12 -3 12 -1 16 C-0.67 10.72 -0.34 5.44 0 0 Z " fill="#8C8C8D" transform="translate(542,178)"/>
<path d="M0 0 C0.3756773 7.26309452 0.3756773 7.26309452 -1.625 11.1875 C-3.34751485 13.93168122 -3.34751485 13.93168122 -2.25 16.8125 C-1.17997961 18.90772619 -1.17997961 18.90772619 0 20 C-0.08937803 21.52519276 -0.24537146 23.04681929 -0.4375 24.5625 C-0.53933594 25.38878906 -0.64117188 26.21507812 -0.74609375 27.06640625 C-0.82988281 27.70449219 -0.91367187 28.34257812 -1 29 C-6.34579439 30.3364486 -6.34579439 30.3364486 -9.1875 28.875 C-11 27 -11 27 -11.390625 24.30078125 C-11.34421875 23.31464844 -11.2978125 22.32851563 -11.25 21.3125 C-11.21390625 20.31863281 -11.1778125 19.32476562 -11.140625 18.30078125 C-11.09421875 17.54152344 -11.0478125 16.78226562 -11 16 C-10.01 15.67 -9.02 15.34 -8 15 C-6.9853761 13.1935345 -6.9853761 13.1935345 -7 11 C-7.474375 10.401875 -7.94875 9.80375 -8.4375 9.1875 C-10.62796151 6.12085389 -10.21185848 3.67221361 -10 0 C-6.7169902 -1.6415049 -3.57454967 -0.51888624 0 0 Z " fill="#F46A50" transform="translate(693,258)"/>
<path d="M0 0 C3.3 0 6.6 0 10 0 C10 3.96 10 7.92 10 12 C13.63 12 17.26 12 21 12 C21 14.97 21 17.94 21 21 C16.05 21.495 16.05 21.495 11 22 C10.67 25.96 10.34 29.92 10 34 C6.7 34 3.4 34 0 34 C0 30.04 0 26.08 0 22 C-3.63 22 -7.26 22 -11 22 C-11 18.7 -11 15.4 -11 12 C-7.37 12 -3.74 12 0 12 C0 8.04 0 4.08 0 0 Z M2 1 C2 4.3 2 7.6 2 11 C-0.43387753 12.21693876 -2.41838846 12.31959896 -5.125 12.5625 C-6.49011719 12.68818359 -6.49011719 12.68818359 -7.8828125 12.81640625 C-8.58148438 12.87699219 -9.28015625 12.93757813 -10 13 C-10 15.31 -10 17.62 -10 20 C-6.37 20 -2.74 20 1 20 C1 24.29 1 28.58 1 33 C3.64 33 6.28 33 9 33 C9 28.38 9 23.76 9 19 C8.01 19.33 7.02 19.66 6 20 C6.350625 19.236875 6.70125 18.47375 7.0625 17.6875 C8.32360884 14.95240621 8.32360884 14.95240621 7 12 C7.66 11.67 8.32 11.34 9 11 C9 7.7 9 4.4 9 1 C6.69 1 4.38 1 2 1 Z " fill="#F05F42" transform="translate(427,257)"/>
<path d="M0 0 C0 3 0 3 -1 6 C-0.19304688 5.82597656 0.61390625 5.65195312 1.4453125 5.47265625 C5.68737668 4.90860156 9.62225104 5.12394986 13.875 5.4375 C14.65875 5.48970703 15.4425 5.54191406 16.25 5.59570312 C18.1670912 5.72428851 20.08361503 5.86128617 22 6 C22 8.31 22 10.62 22 13 C12.1 13 2.2 13 -8 13 C-8 10.03 -8 7.06 -8 4 C-6.865625 3.525625 -5.73125 3.05125 -4.5625 2.5625 C-1.24259834 1.36377917 -1.24259834 1.36377917 0 0 Z " fill="#FC5633" transform="translate(789,282)"/>
<path d="M0 0 C0.33 1.32 0.66 2.64 1 4 C6.28 4.33 11.56 4.66 17 5 C17 6.98 17 8.96 17 11 C7.1 11 -2.8 11 -13 11 C-13 4 -13 4 -12 2 C-7.80454472 -1.33168508 -5.12948627 -1.10635978 0 0 Z " fill="#FD5432" transform="translate(758,284)"/>
<path d="M0 0 C0.66 0.33 1.32 0.66 2 1 C2 2.65 2 4.3 2 6 C2.99 6 3.98 6 5 6 C5 5.34 5 4.68 5 4 C12.25723473 4.59485531 12.25723473 4.59485531 15.0625 6.125 C16.62837577 9.25675154 15.8372211 11.7109171 15 15 C11.00618273 17.66254484 7.69662891 17.71851412 3 17 C0.71617885 15.00165649 0.16805616 13.73524569 -0.5 10.8125 C-0.665 10.214375 -0.83 9.61625 -1 9 C-1.99 8.67 -2.98 8.34 -4 8 C-4.33 10.64 -4.66 13.28 -5 16 C-3.68 15.01 -2.36 14.02 -1 13 C-0.34 13.33 0.32 13.66 1 14 C1 14.99 1 15.98 1 17 C0.34 17 -0.32 17 -1 17 C-1 17.99 -1 18.98 -1 20 C-0.01 20.33 0.98 20.66 2 21 C2 21.66 2 22.32 2 23 C-0.70502403 22.12269491 -2.68400006 21.28331029 -4.8125 19.375 C-6.96013181 15.07973637 -6.4742381 10.73887303 -5.25 6.25 C-3.83062577 3.69512639 -2.16489186 1.94840267 0 0 Z " fill="#F75838" transform="translate(954,271)"/>
<path d="M0 0 C2.64 0 5.28 0 8 0 C8.66 1.32 9.32 2.64 10 4 C11.94074861 3.72382467 11.94074861 3.72382467 14 3 C14.66 2.01 15.32 1.02 16 0 C15.38909774 6.47556391 15.38909774 6.47556391 13.5625 8.9375 C12 10 12 10 10 10 C10.3609375 10.69867188 10.721875 11.39734375 11.09375 12.1171875 C11.5578125 13.02726563 12.021875 13.93734375 12.5 14.875 C12.9640625 15.77992188 13.428125 16.68484375 13.90625 17.6171875 C15 20 15 20 15 22 C12.36 22 9.72 22 7 22 C6.73445312 21.36191406 6.46890625 20.72382813 6.1953125 20.06640625 C5.84210937 19.24011719 5.48890625 18.41382813 5.125 17.5625 C4.60292969 16.32693359 4.60292969 16.32693359 4.0703125 15.06640625 C3.1755063 12.84253285 3.1755063 12.84253285 1 12 C1 15.3 1 18.6 1 22 C0.67 22 0.34 22 0 22 C-0.05410687 20.22950311 -0.09284119 18.45853151 -0.125 16.6875 C-0.14820313 15.70136719 -0.17140625 14.71523437 -0.1953125 13.69921875 C0 11 0 11 2 8 C1.34 8 0.68 8 0 8 C0 5.36 0 2.72 0 0 Z " fill="#949496" transform="translate(737,184)"/>
<path d="M0 0 C1.98 0 3.96 0 6 0 C6 7.59 6 15.18 6 23 C8.97 23 11.94 23 15 23 C15 24.65 15 26.3 15 28 C10.05 28 5.1 28 0 28 C0 18.76 0 9.52 0 0 Z " fill="#89898B" transform="translate(490,178)"/>
<path d="M0 0 C0.66 0 1.32 0 2 0 C1.6875 1.9375 1.6875 1.9375 1 4 C0.01 4.33 -0.98 4.66 -2 5 C-2 9.62 -2 14.24 -2 19 C0.475 19.99 0.475 19.99 3 21 C3.66 20.01 4.32 19.02 5 18 C4.67 17.67 4.34 17.34 4 17 C3.92820036 15.48071962 3.91607993 13.95832518 3.9375 12.4375 C3.94652344 11.61121094 3.95554687 10.78492188 3.96484375 9.93359375 C3.97644531 9.29550781 3.98804688 8.65742188 4 8 C4.66 8 5.32 8 6 8 C6.103125 9.11375 6.20625 10.2275 6.3125 11.375 C6.539375 12.57125 6.76625 13.7675 7 15 C10.22791555 17.1519437 11.28400809 17.20086443 15 17 C14.67 17.66 14.34 18.32 14 19 C13.34 19 12.68 19 12 19 C12 19.66 12 20.32 12 21 C12.84304688 20.7834375 13.68609375 20.566875 14.5546875 20.34375 C16.19824219 19.92609375 16.19824219 19.92609375 17.875 19.5 C18.96554687 19.2215625 20.05609375 18.943125 21.1796875 18.65625 C24 18 24 18 26 18 C24.85081507 21.2177178 23.09193526 23.42368519 20.1640625 25.2265625 C14.23906691 27.3441602 7.20980726 27.2101777 1.34765625 25 C-1.86457875 22.95532239 -3.60119518 21.251073 -4.76953125 17.5859375 C-5.44211486 12.69307654 -5.19608208 8.50196826 -3 4 C-1.375 2.1875 -1.375 2.1875 0 1 C0 0.67 0 0.34 0 0 Z " fill="#EF6348" transform="translate(676,270)"/>
<path d="M0 0 C0 15.51 0 31.02 0 47 C-3.63 47 -7.26 47 -11 47 C-11 35.78 -11 24.56 -11 13 C-14.63 13.66 -18.26 14.32 -22 15 C-22 12.36 -22 9.72 -22 7 C-14.7935785 3.20025048 -8.25276407 0 0 0 Z M-6.6875 2.875 C-9.43409934 4.21118347 -12.12201939 4.79782375 -15.09765625 5.4375 C-17.30116285 5.9869945 -17.30116285 5.9869945 -20 8 C-20 9.65 -20 11.3 -20 13 C-16.7 12.67 -13.4 12.34 -10 12 C-10 23.22 -10 34.44 -10 46 C-7.36 46 -4.72 46 -2 46 C-2 31.48 -2 16.96 -2 2 C-4.87293328 1.76984142 -4.87293328 1.76984142 -6.6875 2.875 Z " fill="#E26951" transform="translate(635,249)"/>
<path d="M0 0 C3.9375 0.5625 3.9375 0.5625 5.9375 2.0625 C7.36699186 5.63622965 7.62125401 8.77077324 6.9375 12.5625 C5.375 15.0625 5.375 15.0625 2.9375 16.5625 C-0.47007541 16.98097417 -2.86218313 17.202669 -5.9375 15.5625 C-7.73626867 12.36468904 -8.27340494 9.17600457 -8.0625 5.5625 C-6.11784419 1.50408787 -4.38468988 0.25078485 0 0 Z " fill="#F9F9F9" transform="translate(711.0625,183.4375)"/>
<path d="M0 0 C3.5426931 0.02820616 4.63090304 0.2380644 7.75 2.1875 C11.42157588 6.08854938 11.03447588 9.43290873 10.953125 14.60546875 C10.69271152 18.07597915 10.32449996 19.89890629 7.75 22.3125 C5.015214 23.01912123 2.60162874 23.17225596 -0.25 23.3125 C-0.25 19.51692119 0.25178941 17.68347383 1.75 14.3125 C2.08 14.9725 2.41 15.6325 2.75 16.3125 C3.41 15.9825 4.07 15.6525 4.75 15.3125 C4.75 14.9825 4.75 14.6525 4.75 14.3125 C3.76 13.9825 2.77 13.6525 1.75 13.3125 C1.42 10.6725 1.09 8.0325 0.75 5.3125 C-0.57 4.9825 -1.89 4.6525 -3.25 4.3125 C-3.25 3.6525 -3.25 2.9925 -3.25 2.3125 C-3.91 1.9825 -4.57 1.6525 -5.25 1.3125 C-3.69014791 -0.24735209 -2.16093902 0.06797656 0 0 Z " fill="#FC5431" transform="translate(763.25,249.6875)"/>
<path d="M0 0 C0 15.51 0 31.02 0 47 C-3.63 47 -7.26 47 -11 47 C-11 35.78 -11 24.56 -11 13 C-12.65 13.66 -14.3 14.32 -16 15 C-19.3125 15.125 -19.3125 15.125 -22 15 C-22 12.36 -22 9.72 -22 7 C-6.98473282 0 -6.98473282 0 0 0 Z M-4 1 C-4 1.66 -4 2.32 -4 3 C-5.32 3 -6.64 3 -8 3 C-8 3.66 -8 4.32 -8 5 C-10.31 5.33 -12.62 5.66 -15 6 C-15.33 7.32 -15.66 8.64 -16 10 C-14.35 10 -12.7 10 -11 10 C-10.67 21.88 -10.34 33.76 -10 46 C-7.03 46 -4.06 46 -1 46 C-1 31.15 -1 16.3 -1 1 C-1.99 1 -2.98 1 -4 1 Z " fill="#E76951" transform="translate(864,249)"/>
<path d="M0 0 C1.0209375 -0.01160156 1.0209375 -0.01160156 2.0625 -0.0234375 C4.60849166 0.50013337 5.47972964 1.2811307 7 3.375 C7.74902051 7.3624327 7.47132158 11.16723846 6 14.9375 C3.27886096 16.89331868 1.17380783 16.94620525 -2.125 16.74609375 C-4 16.375 -4 16.375 -6 14.9375 C-7.47132158 11.16723846 -7.74902051 7.3624327 -7 3.375 C-4.9602879 0.56570327 -3.42430075 -0.03891251 0 0 Z " fill="#F9F9FA" transform="translate(438,183.625)"/>
<path d="M0 0 C2.31 0 4.62 0 7 0 C7 9.24 7 18.48 7 28 C4.69 28 2.38 28 0 28 C0 18.76 0 9.52 0 0 Z " fill="#8B8B8B" transform="translate(510,178)"/>
<path d="M0 0 C0.66 1.32 1.32 2.64 2 4 C1.505 4.433125 1.01 4.86625 0.5 5.3125 C-1.33218192 6.99740483 -1.33218192 6.99740483 -1 10 C-0.34 9.01 0.32 8.02 1 7 C1.66 7 2.32 7 3 7 C3 7.66 3 8.32 3 9 C3.99 9 4.98 9 6 9 C6.02694851 10.95825873 6.04637218 12.91662226 6.0625 14.875 C6.07410156 15.96554687 6.08570313 17.05609375 6.09765625 18.1796875 C6 21 6 21 5 23 C3.33333333 23.33333333 1.66666667 23.66666667 0 24 C-0.33 24.66 -0.66 25.32 -1 26 C-1.66 26 -2.32 26 -3 26 C-3 24.35 -3 22.7 -3 21 C-3.66 20.67 -4.32 20.34 -5 20 C-4.34 20 -3.68 20 -3 20 C-3.33 18.35 -3.66 16.7 -4 15 C-6.64 16.65 -9.28 18.3 -12 20 C-10.61555133 17.23110266 -9.25334167 14.71044061 -7.6171875 12.109375 C-7.17246094 11.40039062 -6.72773437 10.69140625 -6.26953125 9.9609375 C-5.80933594 9.23132813 -5.34914063 8.50171875 -4.875 7.75 C-4.40707031 7.00492187 -3.93914063 6.25984375 -3.45703125 5.4921875 C-2.30631492 3.66043497 -1.15337556 1.8300793 0 0 Z " fill="#F26043" transform="translate(889,256)"/>
<path d="M0 0 C2.51814379 3.77721569 2.73797399 6.56293138 2 11 C0.375 13.0625 0.375 13.0625 -2 14 C-5.25 13.6875 -5.25 13.6875 -8 13 C-8 12.34 -8 11.68 -8 11 C-10.475 10.01 -10.475 10.01 -13 9 C-13.36206897 2.60344828 -13.36206897 2.60344828 -11.875 0.125 C-7.82136589 -2.30718047 -3.91599562 -2.79713973 0 0 Z " fill="#929294" transform="translate(690,181)"/>
<path d="M0 0 C1.43861294 0.08746284 2.87597508 0.19565348 4.3125 0.3125 C5.11300781 0.37050781 5.91351562 0.42851562 6.73828125 0.48828125 C9.40063848 1.09064532 10.31193548 1.89641191 12 4 C13.3899408 6.7798816 13.18488204 8.9186326 13 12 C12.13056181 14.60831458 11.55398289 15.6596445 9.20703125 17.1015625 C6.75658066 18.09909106 5.0685627 18.20513389 2.4375 18.125 C1.67308594 18.10695312 0.90867187 18.08890625 0.12109375 18.0703125 C-0.57886719 18.04710937 -1.27882813 18.02390625 -2 18 C-2.99 18 -3.98 18 -5 18 C-4.34 15.69 -3.68 13.38 -3 11 C-2.67 11.66 -2.34 12.32 -2 13 C0.31 13 2.62 13 5 13 C5 11.02 5 9.04 5 7 C2.69 6.34 0.38 5.68 -2 5 C-0.68 4.67 0.64 4.34 2 4 C2 3.34 2 2.68 2 2 C1.34 1.34 0.68 0.68 0 0 Z " fill="#8D8D8E" transform="translate(653,178)"/>
<path d="M0 0 C6.27 0 12.54 0 19 0 C19 2.97 19 5.94 19 9 C12.73 9 6.46 9 0 9 C0 6.03 0 3.06 0 0 Z " fill="#FE5432" transform="translate(816,271)"/>
<path d="M0 0 C6.27 0 12.54 0 19 0 C19 2.97 19 5.94 19 9 C12.73 9 6.46 9 0 9 C0 6.03 0 3.06 0 0 Z " fill="#EC5E40" transform="translate(648,271)"/>
<path d="M0 0 C0 2.97 0 5.94 0 9 C-1.03060547 9.25523437 -1.03060547 9.25523437 -2.08203125 9.515625 C-3.43361328 9.87914062 -3.43361328 9.87914062 -4.8125 10.25 C-5.70582031 10.48203125 -6.59914063 10.7140625 -7.51953125 10.953125 C-10.37646099 12.15888432 -11.38369034 13.40101703 -13 16 C-11.84371094 15.96519531 -11.84371094 15.96519531 -10.6640625 15.9296875 C-9.66117187 15.91164063 -8.65828125 15.89359375 -7.625 15.875 C-6.62726563 15.85179687 -5.62953125 15.82859375 -4.6015625 15.8046875 C-2 16 -2 16 0 18 C-0.64066406 17.98839844 -1.28132813 17.97679687 -1.94140625 17.96484375 C-7.08653222 17.91116881 -11.93024924 18.11830422 -17 19 C-17 18.34 -17 17.68 -17 17 C-16.34 17 -15.68 17 -15 17 C-14.67 15.68 -14.34 14.36 -14 13 C-14.66 12.67 -15.32 12.34 -16 12 C-15.67 11.01 -15.34 10.02 -15 9 C-14.34 9 -13.68 9 -13 9 C-13 8.34 -13 7.68 -13 7 C-12.01 6.67 -11.02 6.34 -10 6 C-12.31 6 -14.62 6 -17 6 C-12.13514977 0.38671127 -7.21440567 -0.28857623 0 0 Z " fill="#F65839" transform="translate(477,248)"/>
<path d="M0 0 C-0.33 5.94 -0.66 11.88 -1 18 C-1.66 18 -2.32 18 -3 18 C-3.33 19.32 -3.66 20.64 -4 22 C-10.89901257 15.28254039 -10.89901257 15.28254039 -11.1953125 11.51953125 C-11.17210937 10.62621094 -11.14890625 9.73289062 -11.125 8.8125 C-11.10695313 7.91144531 -11.08890625 7.01039063 -11.0703125 6.08203125 C-11.04710937 5.39496094 -11.02390625 4.70789063 -11 4 C-9.68 3.67 -8.36 3.34 -7 3 C-7 2.34 -7 1.68 -7 1 C-4 0 -4 0 0 0 Z " fill="#FC5431" transform="translate(960,252)"/>
<path d="M0 0 C2.97 0.495 2.97 0.495 6 1 C6.33 3.31 6.66 5.62 7 8 C7.99 8 8.98 8 10 8 C13.33333333 8 16.66666667 8 20 8 C20 8.66 20 9.32 20 10 C20.66 10.33 21.32 10.66 22 11 C22 11.66 22 12.32 22 13 C21.34 13 20.68 13 20 13 C20 13.99 20 14.98 20 16 C18.41676312 16.027193 16.83338938 16.04648306 15.25 16.0625 C13.92742188 16.07990234 13.92742188 16.07990234 12.578125 16.09765625 C10.2181162 16.00826198 8.25501476 15.66912821 6 15 C6 14.34 6 13.68 6 13 C4.68 12.67 3.36 12.34 2 12 C2.33 10.68 2.66 9.36 3 8 C3.66 8.33 4.32 8.66 5 9 C4.34 8.34 3.68 7.68 3 7 C0.89179203 7.3185177 0.89179203 7.3185177 -1 8 C-1.125 2.25 -1.125 2.25 0 0 Z " fill="#FA5432" transform="translate(950,279)"/>
<path d="M0 0 C5.36170213 0.59574468 5.36170213 0.59574468 7.875 2.1875 C9.53489888 4.86178153 9.32720122 6.92430852 9 10 C7 12 7 12 3.875 12.125 C2.92625 12.08375 1.9775 12.0425 1 12 C1 11.34 1 10.68 1 10 C0.34 10 -0.32 10 -1 10 C-1.33 10.99 -1.66 11.98 -2 13 C-2.33 13 -2.66 13 -3 13 C-3.33 14.65 -3.66 16.3 -4 18 C-5.32 18.33 -6.64 18.66 -8 19 C-9.07511878 14.60993163 -9.3257941 11.95377757 -7.0625 8.0625 C-6.381875 7.051875 -5.70125 6.04125 -5 5 C-4.34 5.66 -3.68 6.32 -3 7 C-2.01 4.69 -1.02 2.38 0 0 Z " fill="#F75B3C" transform="translate(551,255)"/>
<path d="M0 0 C0.4846875 0.45761719 0.969375 0.91523438 1.46875 1.38671875 C1.46875 2.37671875 1.46875 3.36671875 1.46875 4.38671875 C0.80875 3.74734375 0.14875 3.10796875 -0.53125 2.44921875 C-4.2056721 -0.07694644 -7.08769144 -0.87313848 -11.53125 -0.61328125 C-14.95099919 0.67666668 -14.95099919 0.67666668 -17.53125 2.38671875 C-16.87125 2.71671875 -16.21125 3.04671875 -15.53125 3.38671875 C-16.23066596 6.53409057 -17.29203698 9.41260751 -18.53125 12.38671875 C-19.19125 11.72671875 -19.85125 11.06671875 -20.53125 10.38671875 C-20.985 11.21171875 -21.43875 12.03671875 -21.90625 12.88671875 C-22.710625 14.12421875 -22.710625 14.12421875 -23.53125 15.38671875 C-24.19125 15.38671875 -24.85125 15.38671875 -25.53125 15.38671875 C-26.76865871 11.67449263 -27.08881126 8.24443993 -26.53125 4.38671875 C-24.17237318 0.64505207 -21.71277572 -1.98998819 -17.34375 -3.23828125 C-10.05389813 -4.2102615 -6.19939617 -3.96999793 0 0 Z " fill="#F35C3D" transform="translate(566.53125,251.61328125)"/>
<path d="M0 0 C1.32 0.33 2.64 0.66 4 1 C3.01 2.485 3.01 2.485 2 4 C3.32 4.66 4.64 5.32 6 6 C5.01 6 4.02 6 3 6 C3 7.32 3 8.64 3 10 C2.34 10 1.68 10 1 10 C1.185625 10.556875 1.37125 11.11375 1.5625 11.6875 C2.07551165 14.399133 1.6640724 16.34371039 1 19 C1.66 19.33 2.32 19.66 3 20 C2.34 21.32 1.68 22.64 1 24 C-0.32 24 -1.64 24 -3 24 C-3 23.34 -3 22.68 -3 22 C-3.99 21.67 -4.98 21.34 -6 21 C-6.02705729 19.22925083 -6.04642195 17.45838289 -6.0625 15.6875 C-6.07410156 14.70136719 -6.08570313 13.71523438 -6.09765625 12.69921875 C-6 10 -6 10 -5 7 C-4.01 6.34 -3.02 5.68 -2 5 C-0.79549696 2.44816596 -0.79549696 2.44816596 0 0 Z " fill="#FC5432" transform="translate(679,268)"/>
<path d="M0 0 C0.79664063 0.49113281 0.79664063 0.49113281 1.609375 0.9921875 C4.62694157 2.2642989 6.98693023 2.1959363 10.25 2.125 C11.86648438 2.09792969 11.86648438 2.09792969 13.515625 2.0703125 C14.33546875 2.04710937 15.1553125 2.02390625 16 2 C16 2.66 16 3.32 16 4 C15.01 4.33 14.02 4.66 13 5 C12.67 5.66 12.34 6.32 12 7 C13.32 7.33 14.64 7.66 16 8 C16 8.99 16 9.98 16 11 C9.73 11 3.46 11 -3 11 C-3 8.69 -3 6.38 -3 4 C-2.01 3.67 -1.02 3.34 0 3 C0 2.01 0 1.02 0 0 Z " fill="#F35938" transform="translate(914,275)"/>
<path d="M0 0 C3.63 0 7.26 0 11 0 C11 3.96 11 7.92 11 12 C13.6915625 11.9690625 13.6915625 11.9690625 16.4375 11.9375 C18.29166122 11.9161878 20.14712498 11.92773498 22 12 C22.33 12.33 22.66 12.66 23 13 C23.33 10.36 23.66 7.72 24 5 C24.66 5 25.32 5 26 5 C25.835 6.155 25.67 7.31 25.5 8.5 C24.68646128 15.6385158 24.92079278 22.82734659 25 30 C23 27 23 27 23 24 C19.37 24 15.74 24 12 24 C12.020625 25.77375 12.04125 27.5475 12.0625 29.375 C12.125 34.75 12.125 34.75 11 37 C7.37 37 3.74 37 0 37 C0 36.34 0 35.68 0 35 C3.3 35 6.6 35 10 35 C9.98839844 34.14535156 9.97679687 33.29070312 9.96484375 32.41015625 C9.95582031 31.30542969 9.94679688 30.20070313 9.9375 29.0625 C9.92589844 27.96035156 9.91429687 26.85820312 9.90234375 25.72265625 C10 23 10 23 11 22 C12.68608966 21.92794489 14.37500659 21.91613932 16.0625 21.9375 C16.98160156 21.94652344 17.90070313 21.95554687 18.84765625 21.96484375 C19.55792969 21.97644531 20.26820313 21.98804688 21 22 C21 19.03 21 16.06 21 13 C17.37 13 13.74 13 10 13 C10 9.04 10 5.08 10 1 C6.7 1 3.4 1 0 1 C0 0.67 0 0.34 0 0 Z " fill="#FAC9BB" transform="translate(427,256)"/>
<path d="M0 0 C0.33 0 0.66 0 1 0 C1.25 2.75 1.25 2.75 1 6 C-0.9375 8.3125 -0.9375 8.3125 -3 10 C-3.33 10.33 -3.66 10.66 -4 11 C-1.94766315 13.2477975 -0.99332739 14.0022242 2 15 C2.268125 14.05125 2.53625 13.1025 2.8125 12.125 C4 9 4 9 7 7 C7 10.96 7 14.92 7 19 C4.4609375 18.93489583 1.921875 18.86979167 -0.6171875 18.8046875 C-3.18806994 18.75675164 -3.18806994 18.75675164 -5 21 C-5.99 21 -6.98 21 -8 21 C-8 20.34 -8 19.68 -8 19 C-8.66 19 -9.32 19 -10 19 C-8.62309544 14.25652774 -6.56160559 10.27474838 -3.9375 6.125 C-3.57333984 5.53203125 -3.20917969 4.9390625 -2.83398438 4.328125 C-1.9218371 2.86464287 -0.96486632 1.4292745 0 0 Z " fill="#F55A3B" transform="translate(718,259)"/>
<path d="M0 0 C8.25 0 16.5 0 25 0 C25 2.31 25 4.62 25 7 C24.16807129 6.98428955 24.16807129 6.98428955 23.31933594 6.96826172 C20.79627041 6.92657996 18.27327747 6.90063562 15.75 6.875 C14.87730469 6.85824219 14.00460937 6.84148437 13.10546875 6.82421875 C11.83896484 6.81455078 11.83896484 6.81455078 10.546875 6.8046875 C9.38430176 6.78897705 9.38430176 6.78897705 8.19824219 6.77294922 C5.74116461 7.02673444 4.12688458 7.77555848 2 9 C1.855625 7.88625 1.71125 6.7725 1.5625 5.625 C1.21627965 2.17857953 1.21627965 2.17857953 0 0 Z " fill="#F95432" transform="translate(580,250)"/>
<path d="M0 0 C8.91 0 17.82 0 27 0 C27 2.97 27 5.94 27 9 C20.73 9 14.46 9 8 9 C7.34 10.98 6.68 12.96 6 15 C3.375 17.375 3.375 17.375 1 19 C-0.19329748 12.43686385 0 6.96308479 0 0 Z M1 1 C1.60855027 4.04275136 2.22389502 7.00645224 3 10 C3.5662207 9.67402832 4.13244141 9.34805664 4.71582031 9.01220703 C7.21950977 7.90272686 8.82657918 7.76792675 11.546875 7.8046875 C12.81337891 7.81435547 12.81337891 7.81435547 14.10546875 7.82421875 C14.97816406 7.84097656 15.85085938 7.85773438 16.75 7.875 C18.08224609 7.88853516 18.08224609 7.88853516 19.44140625 7.90234375 C21.62788058 7.92585423 23.81380094 7.95871501 26 8 C26 5.69 26 3.38 26 1 C17.75 1 9.5 1 1 1 Z " fill="#F15C3D" transform="translate(579,249)"/>
<path d="M0 0 C3.06997072 -0.39191116 5.11365285 -0.47271848 7.875 1 C9.64629177 4.14896314 9.54794453 7.47038329 9 11 C8.01 12.485 8.01 12.485 7 14 C4.0625 14.4375 4.0625 14.4375 1 14 C-0.875 12.4375 -0.875 12.4375 -2 10 C-2.38503486 5.61060262 -2.47342266 3.71013399 0 0 Z " fill="#FEF4EE" transform="translate(464,273)"/>
<path d="M0 0 C-0.33 1.98 -0.66 3.96 -1 6 C0.32 6.99 1.64 7.98 3 9 C2.67 10.32 2.34 11.64 2 13 C0.68 13 -0.64 13 -2 13 C-3.62514468 14.45833358 -3.62514468 14.45833358 -5 16 C-5.66 16 -6.32 16 -7 16 C-6.53029274 13.8080328 -6.0204734 12.03733385 -4.9375 10.0625 C-3.80936076 7.58059367 -3.85022363 5.69597461 -4 3 C-4.66 2.67 -5.32 2.34 -6 2 C-6 1.34 -6 0.68 -6 0 C-3.50907189 -1.24546405 -2.58919267 -0.7767578 0 0 Z M-9 16 C-8.34 16.33 -7.68 16.66 -7 17 C-7 17.99 -7 18.98 -7 20 C-6.34 20.33 -5.68 20.66 -5 21 C-5 21.99 -5 22.98 -5 24 C-7.31 24 -9.62 24 -12 24 C-12 23.34 -12 22.68 -12 22 C-13.8871875 22.12375 -13.8871875 22.12375 -15.8125 22.25 C-17.95703125 22.390625 -17.95703125 22.390625 -20 22 C-21.76171875 19.984375 -21.76171875 19.984375 -23 18 C-22.24074219 18.02320313 -21.48148437 18.04640625 -20.69921875 18.0703125 C-19.20841797 18.09738281 -19.20841797 18.09738281 -17.6875 18.125 C-16.20830078 18.15980469 -16.20830078 18.15980469 -14.69921875 18.1953125 C-11.77593473 18.20682639 -11.77593473 18.20682639 -9 16 Z " fill="#FAE1E4" transform="translate(332,248)"/>
<path d="M0 0 C0.66 1.32 1.32 2.64 2 4 C3.98 4 5.96 4 8 4 C8 4.66 8 5.32 8 6 C8.66 6 9.32 6 10 6 C10 7.32 10 8.64 10 10 C8.02 10 6.04 10 4 10 C4 9.01 4 8.02 4 7 C3.01 7.33 2.02 7.66 1 8 C1 9.65 1 11.3 1 13 C0.34 13 -0.32 13 -1 13 C-1 14.98 -1 16.96 -1 19 C-1.5878125 18.2265625 -1.5878125 18.2265625 -2.1875 17.4375 C-2.785625 16.963125 -3.38375 16.48875 -4 16 C-6.65466049 16.23043864 -6.65466049 16.23043864 -9 17 C-9.20086443 13.28400809 -9.1519437 12.22791555 -7 9 C-4.875 7.8125 -4.875 7.8125 -3 7 C-3 5.02 -3 3.04 -3 1 C-2.34 1.33 -1.68 1.66 -1 2 C-0.67 1.34 -0.34 0.68 0 0 Z " fill="#FA5532" transform="translate(550,265)"/>
<path d="M0 0 C-0.020625 1.093125 -0.04125 2.18625 -0.0625 3.3125 C-0.18544452 6.94384191 -0.18544452 6.94384191 1 10 C0.67 10.66 0.34 11.32 0 12 C0.99 12.33 1.98 12.66 3 13 C3 13.66 3 14.32 3 15 C-1.29 15 -5.58 15 -10 15 C-10 7.8 -10 7.8 -7 4 C-1.59459459 0 -1.59459459 0 0 0 Z " fill="#FA5432" transform="translate(886,270)"/>
<path d="M0 0 C2.05078125 0.03255208 4.1015625 0.06510417 6.15234375 0.09765625 C6.15234375 0.75765625 6.15234375 1.41765625 6.15234375 2.09765625 C7.14234375 2.42765625 8.13234375 2.75765625 9.15234375 3.09765625 C9.15234375 3.75765625 9.15234375 4.41765625 9.15234375 5.09765625 C9.81234375 5.42765625 10.47234375 5.75765625 11.15234375 6.09765625 C11.56640625 8.1640625 11.56640625 8.1640625 11.77734375 10.66015625 C11.85210938 11.48644531 11.926875 12.31273437 12.00390625 13.1640625 C12.05289063 13.80214844 12.101875 14.44023437 12.15234375 15.09765625 C11.16234375 15.42765625 10.17234375 15.75765625 9.15234375 16.09765625 C8.82234375 14.44765625 8.49234375 12.79765625 8.15234375 11.09765625 C7.16234375 12.58265625 7.16234375 12.58265625 6.15234375 14.09765625 C5.49234375 13.76765625 4.83234375 13.43765625 4.15234375 13.09765625 C4.15234375 11.44765625 4.15234375 9.79765625 4.15234375 8.09765625 C2.83234375 7.76765625 1.51234375 7.43765625 0.15234375 7.09765625 C0.02859375 6.29328125 -0.09515625 5.48890625 -0.22265625 4.66015625 C-0.53203125 3.39171875 -0.53203125 3.39171875 -0.84765625 2.09765625 C-1.50765625 1.76765625 -2.16765625 1.43765625 -2.84765625 1.09765625 C-1.84765625 0.09765625 -1.84765625 0.09765625 0 0 Z " fill="#FC5430" transform="translate(504.84765625,249.90234375)"/>
<path d="M0 0 C1.2375 0.6496875 1.2375 0.6496875 2.5 1.3125 C2.5 1.9725 2.5 2.6325 2.5 3.3125 C1.2315625 3.18875 1.2315625 3.18875 -0.0625 3.0625 C-4.65228524 3.39630256 -6.71679363 4.69335713 -10.5 7.3125 C-14.2108652 13.03088245 -12.8374113 20.95979633 -11.5 27.3125 C-12.82 27.3125 -14.14 27.3125 -15.5 27.3125 C-19.49543358 15.4336034 -19.49543358 15.4336034 -16.5 9.3125 C-14.4375 8.0625 -14.4375 8.0625 -12.5 7.3125 C-12.17 6.3225 -11.84 5.3325 -11.5 4.3125 C-7.82018693 1.03667595 -4.94145025 -0.97064201 0 0 Z " fill="#FDD7DB" transform="translate(275.5,196.6875)"/>
<path d="M0 0 C0.433125 0.66 0.86625 1.32 1.3125 2 C2.1478125 2.99 2.1478125 2.99 3 4 C3.99 4 4.98 4 6 4 C6 4.66 6 5.32 6 6 C6.66 6 7.32 6 8 6 C9.02611949 7.65071396 10.02308143 9.31970006 11 11 C11.556875 11.556875 12.11375 12.11375 12.6875 12.6875 C13.120625 13.120625 13.55375 13.55375 14 14 C14 14.66 14 15.32 14 16 C13.34 16.33 12.68 16.66 12 17 C14.31 17.33 16.62 17.66 19 18 C19 18.33 19 18.66 19 19 C10.24880383 19.44497608 10.24880383 19.44497608 6 16 C2.14791444 12.00605293 0.03423413 9.01981386 -0.0625 3.3125 C-0.041875 2.219375 -0.02125 1.12625 0 0 Z " fill="#8F8F8F" transform="translate(696,188)"/>
<path d="M0 0 C3.12606798 -0.39907251 5.14511207 -0.46880951 7.9375 1.0625 C9.66665678 4.21566824 8.8590699 6.62508255 8 10 C5 12 5 12 1.8125 11.625 C0.4203125 11.315625 0.4203125 11.315625 -1 11 C-2.25 3.375 -2.25 3.375 0 0 Z " fill="#FDE7E1" transform="translate(961,276)"/>
<path d="M0 0 C3.63 0 7.26 0 11 0 C11 9.57 11 19.14 11 29 C10.34 29 9.68 29 9 29 C9 20.75 9 12.5 9 4 C6.36 4 3.72 4 1 4 C-0.91256712 5.88077873 -0.91256712 5.88077873 -2 8 C-2.66 8 -3.32 8 -4 8 C-2.87548273 5.0280615 -1.77706209 2.66559313 0 0 Z " fill="#EC7963" transform="translate(894,248)"/>
<path d="M0 0 C1.875 1.625 1.875 1.625 3 4 C2.8125 7.1875 2.8125 7.1875 2 10 C-0.73905345 11.36952673 -2.97087332 11.12621361 -6 11 C-6.66 10.67 -7.32 10.34 -8 10 C-8.29296875 3.9453125 -8.29296875 3.9453125 -8 2 C-4.77856724 -0.14762184 -3.7404533 -0.561068 0 0 Z " fill="#FDECE5" transform="translate(558,276)"/>
<path d="M0 0 C0.33 0 0.66 0 1 0 C1 3.63 1 7.26 1 11 C-4.94 11.33 -10.88 11.66 -17 12 C-14.75 6.375 -14.75 6.375 -12 4 C-11.67 4.66 -11.34 5.32 -11 6 C-10.34 6 -9.68 6 -9 6 C-8.67 6 -8.34 6 -8 6 C-7.01 5.67 -6.02 5.34 -5 5 C-4.34 5.33 -3.68 5.66 -3 6 C-2.690625 5.195625 -2.38125 4.39125 -2.0625 3.5625 C-1 1 -1 1 0 0 Z " fill="#F66548" transform="translate(929,266)"/>
<path d="M0 0 C0.66 0 1.32 0 2 0 C3.2265625 1.8359375 3.2265625 1.8359375 4.625 4.375 C7.4854944 9.33838261 10.79901918 13.67073276 14.4609375 18.06640625 C16 20 16 20 16 21 C14.35 21 12.7 21 11 21 C11 19.68 11 18.36 11 17 C7.48973216 13.48973216 3.80987739 13 -1 13 C-1.02708567 11.39592672 -1.04643483 9.7917215 -1.0625 8.1875 C-1.07410156 7.29417969 -1.08570313 6.40085938 -1.09765625 5.48046875 C-1 3 -1 3 0 0 Z " fill="#FAEDEE" transform="translate(265,226)"/>
<path d="M0 0 C3.5625 0.1875 3.5625 0.1875 5.5625 2.1875 C5.83241906 4.87589385 5.64987357 7.47891936 5.5625 10.1875 C0.30759804 11.50122549 0.30759804 11.50122549 -2.8125 10.1875 C-5.2127254 7.23337643 -4.77848334 4.87012006 -4.4375 1.1875 C-3.4375 0.1875 -3.4375 0.1875 0 0 Z " fill="#FDEEE9" transform="translate(686.4375,276.8125)"/>
<path d="M0 0 C3.63 0 7.26 0 11 0 C11 9.57 11 19.14 11 29 C10.67 29 10.34 29 10 29 C9.505 16.13 9.505 16.13 9 3 C6.03 2.67 3.06 2.34 0 2 C-0.20625 2.78375 -0.4125 3.5675 -0.625 4.375 C-2.4731339 9.24735302 -4.9303756 13.77926645 -8 18 C-8.66 18 -9.32 18 -10 18 C-10.33 19.32 -10.66 20.64 -11 22 C-11.66 22 -12.32 22 -13 22 C-11.25048783 17.06775948 -8.73158263 12.66600293 -6.0625 8.1875 C-5.63904297 7.39923828 -5.21558594 6.61097656 -4.77929688 5.79882812 C-3.41015625 3.54296875 -3.41015625 3.54296875 0 0 Z " fill="#EC856F" transform="translate(930,248)"/>
<path d="M0 0 C7.09629025 -0.31461385 12.68284595 -0.44572039 19 3 C18.3125 4.9375 18.3125 4.9375 17 7 C14.12060581 7.93580311 12.74490212 8.37245106 10 7 C10 6.34 10 5.68 10 5 C6.7 4.67 3.4 4.34 0 4 C0 2.66666667 0 1.33333333 0 0 Z " fill="#FC5433" transform="translate(584,266)"/>
<path d="M0 0 C1.5778125 0.5878125 1.5778125 0.5878125 3.1875 1.1875 C3.1875 2.5075 3.1875 3.8275 3.1875 5.1875 C1.1875 7.1875 1.1875 7.1875 -1.8515625 7.3828125 C-3.03492188 7.35960937 -4.21828125 7.33640625 -5.4375 7.3125 C-6.62601563 7.29445313 -7.81453125 7.27640625 -9.0390625 7.2578125 C-9.95429687 7.23460937 -10.86953125 7.21140625 -11.8125 7.1875 C-11.8125 4.8775 -11.8125 2.5675 -11.8125 0.1875 C-10.8225 0.1875 -9.8325 0.1875 -8.8125 0.1875 C-8.8125 0.8475 -8.8125 1.5075 -8.8125 2.1875 C-8.131875 1.65125 -7.45125 1.115 -6.75 0.5625 C-3.8125 -0.8125 -3.8125 -0.8125 0 0 Z " fill="#FA5430" transform="translate(718.8125,277.8125)"/>
<path d="M0 0 C0.33 0.66 0.66 1.32 1 2 C0.02065076 3.67888441 -0.98343919 5.34338239 -2 7 C-2.66 8.98 -3.32 10.96 -4 13 C5.9 13 15.8 13 26 13 C26 10.69 26 8.38 26 6 C21.05 6 16.1 6 11 6 C11 5.67 11 5.34 11 5 C16.28 5 21.56 5 27 5 C27 7.97 27 10.94 27 14 C16.11 14 5.22 14 -6 14 C-6 6 -6 6 -4.6875 3.90625 C-3.125 2.60416667 -1.5625 1.30208333 0 0 Z " fill="#DB654F" transform="translate(493,282)"/>
<path d="M0 0 C0.99 0.66 1.98 1.32 3 2 C3 2.99 3 3.98 3 5 C3.66 5 4.32 5 5 5 C5.33 7.64 5.66 10.28 6 13 C4.02 13 2.04 13 0 13 C-0.66 14.32 -1.32 15.64 -2 17 C-2.66 16.34 -3.32 15.68 -4 15 C-3.67 14.01 -3.34 13.02 -3 12 C-3.00836721 9.418715 -3.12910636 6.85525202 -3.2578125 4.27734375 C-3.17273438 3.52582031 -3.08765625 2.77429688 -3 2 C-2.01 1.34 -1.02 0.68 0 0 Z " fill="#FC5332" transform="translate(695,254)"/>
<path d="M0 0 C0.33 0 0.66 0 1 0 C1 9.24 1 18.48 1 28 C2.65 28 4.3 28 6 28 C6 30.97 6 33.94 6 37 C4.35 37 2.7 37 1 37 C1 40.3 1 43.6 1 47 C-2.63 47 -6.26 47 -10 47 C-10 43.7 -10 40.4 -10 37 C-9.67 37 -9.34 37 -9 37 C-9 39.97 -9 42.94 -9 46 C-6.03 46 -3.06 46 0 46 C0 42.7 0 39.4 0 36 C1.32 36 2.64 36 4 36 C4 34.02 4 32.04 4 30 C2.68 29.67 1.36 29.34 0 29 C0 19.43 0 9.86 0 0 Z " fill="#EA7A62" transform="translate(735,249)"/>
<path d="M0 0 C7.26 0 14.52 0 22 0 C22 2.64 22 5.28 22 8 C22.99 8 23.98 8 25 8 C25 11.3 25 14.6 25 18 C24.34 18 23.68 18 23 18 C22.67 15.36 22.34 12.72 22 10 C21.67 10.33 21.34 10.66 21 11 C19.52347336 11.09880797 18.04232764 11.13079245 16.5625 11.1328125 C15.22058594 11.13474609 15.22058594 11.13474609 13.8515625 11.13671875 C12.91054688 11.13285156 11.96953125 11.12898438 11 11.125 C9.58847656 11.13080078 9.58847656 11.13080078 8.1484375 11.13671875 C7.25382813 11.13542969 6.35921875 11.13414062 5.4375 11.1328125 C4.61121094 11.13168457 3.78492188 11.13055664 2.93359375 11.12939453 C1 11 1 11 0 10 C0 6.7 0 3.4 0 0 Z M1 1 C1 3.97 1 6.94 1 10 C7.27 10 13.54 10 20 10 C20 7.03 20 4.06 20 1 C13.73 1 7.46 1 1 1 Z " fill="#FDE3D7" transform="translate(647,270)"/>
<path d="M0 0 C0.66 0 1.32 0 2 0 C2.66 0.99 3.32 1.98 4 3 C6.37263241 3.28869449 6.37263241 3.28869449 9 3.0625 C11.6875 2.91015625 11.6875 2.91015625 14 3 C14.66 3.66 15.32 4.32 16 5 C14.125 7.0625 14.125 7.0625 11 9 C7.59546453 9.0571754 4.34668858 8.59785505 1 8 C0.26919734 6.02253397 -0.39421747 4.01927511 -1 2 C-0.67 1.34 -0.34 0.68 0 0 Z " fill="#FC5430" transform="translate(459,286)"/>
<path d="M0 0 C1.98 0 3.96 0 6 0 C6 2.97 6 5.94 6 9 C4.35 9 2.7 9 1 9 C1 12.3 1 15.6 1 19 C-2.63 19 -6.26 19 -10 19 C-10 15.7 -10 12.4 -10 9 C-9.67 9 -9.34 9 -9 9 C-9 11.97 -9 14.94 -9 18 C-6.36 18 -3.72 18 -1 18 C-1.01160156 17.37351562 -1.02320313 16.74703125 -1.03515625 16.1015625 C-1.04417969 15.28429687 -1.05320312 14.46703125 -1.0625 13.625 C-1.07410156 12.81289063 -1.08570313 12.00078125 -1.09765625 11.1640625 C-1 9 -1 9 0 7 C1.32 7 2.64 7 4 7 C4 6.34 4 5.68 4 5 C2.68 4.67 1.36 4.34 0 4 C0 2.68 0 1.36 0 0 Z " fill="#EA674E" transform="translate(940,277)"/>
<path d="M0 0 C4.90057451 0.04649501 8.48994425 2.29370355 12.1875 5.375 C14.40684455 8.70401683 14.45879898 9.86293637 14.4375 13.75 C14.44265625 14.68585938 14.4478125 15.62171875 14.453125 16.5859375 C14.17385261 19.51829762 13.40899016 21.70904925 12.1875 24.375 C11.5275 24.375 10.8675 24.375 10.1875 24.375 C9.8575 25.365 9.5275 26.355 9.1875 27.375 C8.5275 26.385 7.8675 25.395 7.1875 24.375 C7.8475 24.375 8.5075 24.375 9.1875 24.375 C11.95528294 19.37257264 12.72353571 14.11473808 11.625 8.5 C9.51098894 5.37494017 7.76821633 4.5898859 4.1875 3.375 C-1.85036263 2.73838845 -7.10419982 3.38950429 -12.8125 5.375 C-8.76540006 0.7283297 -5.94609602 0.5848619 0 0 Z " fill="#E4654C" transform="translate(795.8125,247.625)"/>
<path d="M0 0 C2.5 0.25 2.5 0.25 4.5 2.25 C4.75 5.25 4.75 5.25 4.5 8.25 C2.5 10.25 2.5 10.25 -0.625 10.375 C-2.048125 10.313125 -2.048125 10.313125 -3.5 10.25 C-4.88125018 7.48749964 -4.69079306 5.30268901 -4.5 2.25 C-2.5 0.25 -2.5 0.25 0 0 Z " fill="#FEDACB" transform="translate(555.5,256.75)"/>
<path d="M0 0 C0.66 0.66 1.32 1.32 2 2 C1.42307692 8.57692308 1.42307692 8.57692308 0 10 C-2.4375 10.1875 -2.4375 10.1875 -5 10 C-7 8 -7 8 -7.125 4.375 C-7.08375 3.26125 -7.0425 2.1475 -7 1 C-4.48718205 -0.25640898 -2.78302919 -0.20872719 0 0 Z " fill="#FDF5F0" transform="translate(690,257)"/>
<path d="M0 0 C1.2375 0.1546875 1.2375 0.1546875 2.5 0.3125 C4.5 3.3125 4.5 3.3125 4.1875 6.4375 C3.5 9.3125 3.5 9.3125 2.5 10.3125 C0.0625 10.5 0.0625 10.5 -2.5 10.3125 C-4.5 8.3125 -4.5 8.3125 -4.75 5.3125 C-4.43541678 1.53750135 -3.81908518 0.47738565 0 0 Z " fill="#FCF4F0" transform="translate(964.5,256.6875)"/>
<path d="M0 0 C6.27 0 12.54 0 19 0 C19 2.97 19 5.94 19 9 C12.73 9 6.46 9 0 9 C0 6.03 0 3.06 0 0 Z M1 2 C1 3.98 1 5.96 1 8 C6.28 8 11.56 8 17 8 C17 6.02 17 4.04 17 2 C11.72 2 6.44 2 1 2 Z " fill="#DF644D" transform="translate(816,271)"/>
<path d="M0 0 C-0.33 2.97 -0.66 5.94 -1 9 C-3.64 9 -6.28 9 -9 9 C-8.71872579 7.51882199 -8.42466268 6.04006751 -8.125 4.5625 C-7.96257812 3.73878906 -7.80015625 2.91507812 -7.6328125 2.06640625 C-7.42398437 1.38449219 -7.21515625 0.70257813 -7 0 C-4.3333581 -1.33332095 -2.83319697 -0.67102033 0 0 Z " fill="#FB5634" transform="translate(497,254)"/>
<path d="M0 0 C3.79133356 0.54161908 5.66109564 1.99283725 8 5 C8.25 7.75 8.25 7.75 8 10 C7.34 9.67 6.68 9.34 6 9 C5.01 10.32 4.02 11.64 3 13 C2.34 12.67 1.68 12.34 1 12 C1 11.67 1 11.34 1 11 C0.34 10.67 -0.32 10.34 -1 10 C-1.625 7.4375 -1.625 7.4375 -2 5 C-1.01 5 -0.02 5 1 5 C0.01 4.34 -0.98 3.68 -2 3 C-1.34 3 -0.68 3 0 3 C0 2.01 0 1.02 0 0 Z " fill="#949496" transform="translate(601,190)"/>
<path d="M0 0 C2.53125 -0.328125 2.53125 -0.328125 5.5 -0.25 C6.96953125 -0.22679687 6.96953125 -0.22679687 8.46875 -0.203125 C11 0 11 0 13 1 C13 1.66 13 2.32 13 3 C13.66 3.33 14.32 3.66 15 4 C14.34 4 13.68 4 13 4 C13 4.99 13 5.98 13 7 C11.35 6.67 9.7 6.34 8 6 C8 5.34 8 4.68 8 4 C6.3603125 4.309375 6.3603125 4.309375 4.6875 4.625 C1 5 1 5 -2 3 C-1.34 2.01 -0.68 1.02 0 0 Z " fill="#868688" transform="translate(432,178)"/>
<path d="M0 0 C-0.66 0 -1.32 0 -2 0 C-1.67 0.639375 -1.34 1.27875 -1 1.9375 C0.33056928 6.01236841 0.16659199 9.75190425 0 14 C-0.66 14 -1.32 14 -2 14 C-2 14.66 -2 15.32 -2 16 C-2.66 15.67 -3.32 15.34 -4 15 C-3.67 14.34 -3.34 13.68 -3 13 C-2.93003986 11.29297265 -2.91559846 9.58331997 -2.9375 7.875 C-2.94652344 6.96492188 -2.95554687 6.05484375 -2.96484375 5.1171875 C-2.97644531 4.41851562 -2.98804688 3.71984375 -3 3 C-5.64 2.67 -8.28 2.34 -11 2 C-11.96070434 4.88211302 -12.10581883 6.69850044 -12.0625 9.6875 C-12.05347656 10.49574219 -12.04445313 11.30398438 -12.03515625 12.13671875 C-12.02355469 12.75160156 -12.01195312 13.36648438 -12 14 C-12.66 13.67 -13.32 13.34 -14 13 C-14.0272415 11.58344207 -14.04650467 10.16672955 -14.0625 8.75 C-14.07410156 7.96109375 -14.08570313 7.1721875 -14.09765625 6.359375 C-14.00385306 4.09308998 -13.63241063 2.1711105 -13 0 C-11.39679026 -0.19551338 -9.79237014 -0.38111983 -8.1875 -0.5625 C-7.29417969 -0.66691406 -6.40085937 -0.77132813 -5.48046875 -0.87890625 C-3 -1 -3 -1 0 0 Z " fill="#EE6B52" transform="translate(475,271)"/>
<path d="M0 0 C1.32 0.66 2.64 1.32 4 2 C3.67 3.98 3.34 5.96 3 8 C-0.96 8 -4.92 8 -9 8 C-8.67 5.69 -8.34 3.38 -8 1 C-7.34 2.32 -6.68 3.64 -6 5 C-4.35 4.67 -2.7 4.34 -1 4 C-0.67 2.68 -0.34 1.36 0 0 Z " fill="#EF6F56" transform="translate(787,257)"/>
<path d="M0 0 C-0.66 3.3 -1.32 6.6 -2 10 C-4.97 9.505 -4.97 9.505 -8 9 C-8.36174071 2.60924751 -8.36174071 2.60924751 -6.8125 0 C-5 -1 -5 -1 0 0 Z " fill="#89898B" transform="translate(705,184)"/>
<path d="M0 0 C3.21365891 1.10815825 3.9914224 1.98529554 5.75 5 C7 8 7 8 7 10 C4.36 10 1.72 10 -1 10 C-1.99 7.69 -2.98 5.38 -4 3 C-2.68 2.67 -1.36 2.34 0 2 C0 1.34 0 0.68 0 0 Z " fill="#909092" transform="translate(745,196)"/>
<path d="M0 0 C1.8871875 0.0309375 1.8871875 0.0309375 3.8125 0.0625 C3.8125 0.3925 3.8125 0.7225 3.8125 1.0625 C1.5025 1.3925 -0.8075 1.7225 -3.1875 2.0625 C-2.8575 3.0525 -2.5275 4.0425 -2.1875 5.0625 C-0.5375 5.0625 1.1125 5.0625 2.8125 5.0625 C2.8125 5.7225 2.8125 6.3825 2.8125 7.0625 C1.141875 7.2790625 1.141875 7.2790625 -0.5625 7.5 C-4.00892047 7.84622035 -4.00892047 7.84622035 -6.1875 9.0625 C-6.8475 8.4025 -7.5075 7.7425 -8.1875 7.0625 C-9.5075 7.0625 -10.8275 7.0625 -12.1875 7.0625 C-11.8575 6.0725 -11.5275 5.0825 -11.1875 4.0625 C-9.125 3.375 -9.125 3.375 -7.1875 3.0625 C-7.1875 2.4025 -7.1875 1.7425 -7.1875 1.0625 C-4.43671116 0.14557039 -2.82801087 -0.04636083 0 0 Z " fill="#9B9B9D" transform="translate(711.1875,176.9375)"/>
<path d="M0 0 C2.31 0.33 4.62 0.66 7 1 C8.125 5.75 8.125 5.75 7 8 C4.69 8 2.38 8 0 8 C0 5.36 0 2.72 0 0 Z " fill="#EBEBEC" transform="translate(651,183)"/>
<path d="M0 0 C1.98362069 2.91708924 1.9876191 4.12380904 1.625 7.75 C1.41875 8.8225 1.2125 9.895 1 11 C-1.64 11 -4.28 11 -7 11 C-6.65930765 7.84859577 -6.41923159 6.39218439 -4.0625 4.1875 C-2 3 -2 3 0 3 C0 2.01 0 1.02 0 0 Z " fill="#FD5632" transform="translate(751,252)"/>
<path d="M0 0 C2.64 0 5.28 0 8 0 C8.04254356 1.99954746 8.04080783 4.00041636 8 6 C7 7 7 7 3.4375 7.0625 C2.303125 7.041875 1.16875 7.02125 0 7 C0 4.69 0 2.38 0 0 Z " fill="#EFEFF0" transform="translate(737,184)"/>
<path d="M0 0 C3.63 0 7.26 0 11 0 C11.04939115 4.09338652 11.08571501 8.18665798 11.10986328 12.28027344 C11.11992877 13.67320781 11.13358234 15.06612102 11.15087891 16.45898438 C11.1751022 18.4595436 11.18540814 20.46025615 11.1953125 22.4609375 C11.20578613 23.66540527 11.21625977 24.86987305 11.22705078 26.11083984 C11 29 11 29 9 31 C9.00523682 30.22809326 9.01047363 29.45618652 9.01586914 28.66088867 C9.03663242 25.16976737 9.04965811 21.67865905 9.0625 18.1875 C9.07087891 16.97255859 9.07925781 15.75761719 9.08789062 14.50585938 C9.09111328 13.34248047 9.09433594 12.17910156 9.09765625 10.98046875 C9.10289307 9.90692139 9.10812988 8.83337402 9.11352539 7.72729492 C9.12194588 4.90500635 9.12194588 4.90500635 8 2 C6.35 2 4.7 2 3 2 C2.67 2.66 2.34 3.32 2 4 C1.01 4 0.02 4 -1 4 C-0.67 2.68 -0.34 1.36 0 0 Z " fill="#EF6244" transform="translate(724,249)"/>
<path d="M0 0 C0.33 0 0.66 0 1 0 C1 3.63 1 7.26 1 11 C-0.11375 11.12375 -1.2275 11.2475 -2.375 11.375 C-6.03103677 11.6465813 -6.03103677 11.6465813 -8 14 C-5.36 14.33 -2.72 14.66 0 15 C0 15.66 0 16.32 0 17 C-4.29 16.67 -8.58 16.34 -13 16 C-10.71495736 11.42991471 -9.61792005 10.81094904 -5 9 C-2.125 8.8125 -2.125 8.8125 0 9 C0 6.03 0 3.06 0 0 Z " fill="#FED3C4" transform="translate(477,248)"/>
<path d="M0 0 C3.94548339 1.27961624 5.87150265 2.4196952 8 6 C8.36328125 8.7265625 8.36328125 8.7265625 8.3125 11.625 C8.30863281 12.58664062 8.30476562 13.54828125 8.30078125 14.5390625 C8 17 8 17 6 19 C5.67 14.71 5.34 10.42 5 6 C2.525 5.01 2.525 5.01 0 4 C0 2.68 0 1.36 0 0 Z " fill="#EF5E45" transform="translate(766,250)"/>
<path d="M0 0 C0.99 0 1.98 0 3 0 C4.08318169 5.3212615 5.152874 10.63486869 6 16 C4.68 16 3.36 16 2 16 C1.46530198 14.27507022 0.94780825 12.544802 0.4375 10.8125 C0.14746094 9.84957031 -0.14257812 8.88664063 -0.44140625 7.89453125 C-1.02461026 4.87247412 -0.81178385 2.94070045 0 0 Z " fill="#FBE2E5" transform="translate(258,208)"/>
<path d="M0 0 C3.63 2.31 7.26 4.62 11 7 C10.01 8.32 9.02 9.64 8 11 C5.97954558 10.39816251 3.97888961 9.72693904 2 9 C1.67 8.34 1.34 7.68 1 7 C1.66 7 2.32 7 3 7 C3 6.34 3 5.68 3 5 C2.34 5 1.68 5 1 5 C0.67 3.35 0.34 1.7 0 0 Z " fill="#FAE3E4" transform="translate(288,253)"/>
<path d="M0 0 C6.15234375 -0.09765625 6.15234375 -0.09765625 8 0 C9 1 9 1 9.25 3.4375 C9.1675 4.283125 9.085 5.12875 9 6 C8.01 6.66 7.02 7.32 6 8 C6 7.34 6 6.68 6 6 C4.02 5.34 2.04 4.68 0 4 C0 2.68 0 1.36 0 0 Z " fill="#FB5431" transform="translate(577,283)"/>
<path d="M0 0 C2.31 0 4.62 0 7 0 C7 1.65 7 3.3 7 5 C6.01 5.33 5.02 5.66 4 6 C3.34 5.67 2.68 5.34 2 5 C1.67 9.95 1.34 14.9 1 20 C0.67 20 0.34 20 0 20 C0 13.4 0 6.8 0 0 Z " fill="#969696" transform="translate(614,178)"/>
<path d="M0 0 C0.33 0.66 0.66 1.32 1 2 C2.68029297 1.96519531 2.68029297 1.96519531 4.39453125 1.9296875 C5.86718084 1.91092763 7.33983763 1.89272766 8.8125 1.875 C9.55048828 1.85824219 10.28847656 1.84148437 11.04882812 1.82421875 C14.91246426 1.78925372 16.70903668 1.80602445 20 4 C19.67 6.64 19.34 9.28 19 12 C18.01 12 17.02 12 16 12 C16 9.03 16 6.06 16 3 C10.39 3 4.78 3 -1 3 C-0.67 2.01 -0.34 1.02 0 0 Z " fill="#FFE6DA" transform="translate(760,284)"/>
<path d="M0 0 C0.33 0 0.66 0 1 0 C1 3.63 1 7.26 1 11 C-1.31 11 -3.62 11 -6 11 C-6 10.01 -6 9.02 -6 8 C-5.34 8 -4.68 8 -4 8 C-3.71125 7.05125 -3.4225 6.1025 -3.125 5.125 C-2 2 -2 2 0 0 Z " fill="#FED7C7" transform="translate(724,266)"/>
<path d="M0 0 C4.52380289 4.24963302 8.38317661 8.95520887 12 14 C12 14.33 12 14.66 12 15 C10.35 15 8.7 15 7 15 C7 13.68 7 12.36 7 11 C5.03852126 9.61061923 3.03833424 8.2739589 1 7 C1 6.34 1 5.68 1 5 C0.34 5 -0.32 5 -1 5 C-0.67 3.35 -0.34 1.7 0 0 Z " fill="#FAD2D7" transform="translate(269,232)"/>
<path d="M0 0 C3.3 0 6.6 0 10 0 C9.67 0.99 9.34 1.98 9 3 C6.36 2.67 3.72 2.34 1 2 C1 3.32 1 4.64 1 6 C1.804375 6.226875 2.60875 6.45375 3.4375 6.6875 C4.283125 7.120625 5.12875 7.55375 6 8 C6.8125 10.625 6.8125 10.625 7 13 C3.62822203 11.60478153 1.74982291 10.23717239 0 7 C-0.1875 3.25 -0.1875 3.25 0 0 Z " fill="#EB775F" transform="translate(576,281)"/>
<path d="M0 0 C0.33 0 0.66 0 1 0 C1 3.63 1 7.26 1 11 C-1.31 11 -3.62 11 -6 11 C-6 10.01 -6 9.02 -6 8 C-5.34 8 -4.68 8 -4 8 C-3.71125 7.05125 -3.4225 6.1025 -3.125 5.125 C-2 2 -2 2 0 0 Z " fill="#FEECE4" transform="translate(929,266)"/>
<path d="M0 0 C0.33 0 0.66 0 1 0 C1 3.63 1 7.26 1 11 C-1.31 11 -3.62 11 -6 11 C-4.55007731 6.89188572 -2.54592427 3.53144334 0 0 Z " fill="#FEE8DF" transform="translate(893,266)"/>
<path d="M0 0 C0.66 1.65 1.32 3.3 2 5 C1.01 5.495 1.01 5.495 0 6 C-0.61875 5.67 -1.2375 5.34 -1.875 5 C-3.92472936 3.8054605 -3.92472936 3.8054605 -6.0625 4.25 C-8.27229292 5.02485661 -8.27229292 5.02485661 -11 7 C-11.33 6.01 -11.66 5.02 -12 4 C-7.96889361 0.80291562 -5.14313574 -0.13900367 0 0 Z " fill="#FD5330" transform="translate(560,250)"/>
<path d="M0 0 C2.31 0 4.62 0 7 0 C7 1.98 7 3.96 7 6 C4.69 6.33 2.38 6.66 0 7 C0 4.69 0 2.38 0 0 Z " fill="#F5F5F6" transform="translate(678,184)"/>
<path d="M0 0 C1.60031344 3.20062687 0.03173691 5.72271806 -1 9 C1.64 9 4.28 9 7 9 C7 7.68 7 6.36 7 5 C7.66 5 8.32 5 9 5 C9 6.98 9 8.96 9 11 C5.04 11 1.08 11 -3 11 C-2.53199289 6.94393835 -2.12046792 3.53411321 0 0 Z " fill="#E77D66" transform="translate(489,254)"/>
<path d="M0 0 C1.60031344 3.20062687 0.03173691 5.72271806 -1 9 C1.64 9 4.28 9 7 9 C7 7.68 7 6.36 7 5 C7.66 5 8.32 5 9 5 C9 6.98 9 8.96 9 11 C5.04 11 1.08 11 -3 11 C-2.53199289 6.94393835 -2.12046792 3.53411321 0 0 Z " fill="#E87C67" transform="translate(745,254)"/>
<path d="M0 0 C3.3 0 6.6 0 10 0 C10 3.63 10 7.26 10 11 C9.67 11 9.34 11 9 11 C9 7.7 9 4.4 9 1 C6.69 1 4.38 1 2 1 C2.33 4.3 2.66 7.6 3 11 C2.01 11.33 1.02 11.66 0 12 C0 8.04 0 4.08 0 0 Z " fill="#E6664C" transform="translate(427,257)"/>
<path d="M0 0 C-0.33 1.65 -0.66 3.3 -1 5 C-4.3 4.67 -7.6 4.34 -11 4 C-11 5.98 -11 7.96 -11 10 C-11.33 10 -11.66 10 -12 10 C-12.36206897 3.60344828 -12.36206897 3.60344828 -10.875 1.125 C-7.20956797 -1.07425922 -4.00271138 -1.33423713 0 0 Z " fill="#98989A" transform="translate(689,180)"/>
<path d="M0 0 C0.33 1.32 0.66 2.64 1 4 C0.01 4.33 -0.98 4.66 -2 5 C-2 5.99 -2 6.98 -2 8 C-2.66 8 -3.32 8 -4 8 C-4.226875 8.928125 -4.45375 9.85625 -4.6875 10.8125 C-6.21177941 14.51432143 -7.36606505 15.45557765 -11 17 C-11.66 16.67 -12.32 16.34 -13 16 C-12.39671875 15.34773438 -11.7934375 14.69546875 -11.171875 14.0234375 C-7.06829241 9.53597138 -3.15299809 5.20930119 0 0 Z " fill="#ED7059" transform="translate(763,265)"/>
<path d="M0 0 C0.33 1.32 0.66 2.64 1 4 C0.01 4.33 -0.98 4.66 -2 5 C-2 5.99 -2 6.98 -2 8 C-2.66 8 -3.32 8 -4 8 C-4.226875 8.928125 -4.45375 9.85625 -4.6875 10.8125 C-6.21177941 14.51432143 -7.36606505 15.45557765 -11 17 C-11.66 16.67 -12.32 16.34 -13 16 C-12.39671875 15.34773438 -11.7934375 14.69546875 -11.171875 14.0234375 C-7.06829241 9.53597138 -3.15299809 5.20930119 0 0 Z " fill="#ED7059" transform="translate(507,265)"/>
<path d="M0 0 C0 5.33333333 0 10.66666667 0 16 C0.99 16.33 1.98 16.66 3 17 C3.33 17.99 3.66 18.98 4 20 C0.61768919 18.60042311 -1.27928642 17.26935579 -3 14 C-3.39208545 9.05972335 -3.30862065 5.48144009 -1 1 C-0.67 0.67 -0.34 0.34 0 0 Z " fill="#E86F56" transform="translate(542,274)"/>
<path d="M0 0 C-0.61277612 2.96175123 -1.25372522 4.38058783 -3 7 C-6.37503669 5.8141763 -8.64722731 4.72426311 -11 2 C-7.17010894 0.19769832 -4.21878192 -0.19622241 0 0 Z " fill="#FBE2E7" transform="translate(328,240)"/>
<path d="M0 0 C-0.33 0.99 -0.66 1.98 -1 3 C-3.64 3 -6.28 3 -9 3 C-9 3.66 -9 4.32 -9 5 C-11.64 5.33 -14.28 5.66 -17 6 C-12.13514977 0.38671127 -7.21440567 -0.28857623 0 0 Z " fill="#EA6C54" transform="translate(477,248)"/>
<path d="M0 0 C0 0.99 0 1.98 0 3 C-3.70003583 5.92720025 -6.54639619 6.36530693 -11.1875 6.25 C-12.23292969 6.23453125 -13.27835937 6.2190625 -14.35546875 6.203125 C-17 6 -17 6 -19 5 C-19 4.34 -19 3.68 -19 3 C-18.04738281 3.03480469 -17.09476562 3.06960938 -16.11328125 3.10546875 C-14.85902344 3.13253906 -13.60476563 3.15960938 -12.3125 3.1875 C-11.07113281 3.22230469 -9.82976562 3.25710938 -8.55078125 3.29296875 C-4.81435679 2.9846829 -2.99370517 2.18088273 0 0 Z " fill="#FCDBCF" transform="translate(479,292)"/>
<path d="M0 0 C1.3609623 2.7219246 0.70366248 4.1831957 0.0625 7.125 C-0.13214844 8.03507812 -0.32679688 8.94515625 -0.52734375 9.8828125 C-0.68332031 10.58148438 -0.83929687 11.28015625 -1 12 C0.32 11.01 1.64 10.02 3 9 C3.66 9.33 4.32 9.66 5 10 C5 10.99 5 11.98 5 13 C4.34 13 3.68 13 3 13 C3 13.99 3 14.98 3 16 C3.99 16.33 4.98 16.66 6 17 C6 17.66 6 18.32 6 19 C3.29497597 18.12269491 1.31599994 17.28331029 -0.8125 15.375 C-2.52141311 11.95717377 -2.44832533 8.71154576 -2 5 C-1 2 -1 2 0 0 Z " fill="#EF6B51" transform="translate(950,275)"/>
<path d="M0 0 C3.26460973 1.80412643 4.88929795 2.83394693 7 6 C7.70053882 11.26218697 7.85751509 15.63333532 5 20.1875 C4.01 21.0846875 4.01 21.0846875 3 22 C3 20.68 3 19.36 3 18 C3.66 18 4.32 18 5 18 C5 14.04 5 10.08 5 6 C4.01 5.67 3.02 5.34 2 5 C2 4.34 2 3.68 2 3 C1.34 2.67 0.68 2.34 0 2 C0 1.34 0 0.68 0 0 Z " fill="#EA604A" transform="translate(511,250)"/>
<path d="M0 0 C0.33 0 0.66 0 1 0 C1.36275695 4.47400242 1.36275695 4.47400242 -0.25 6.8125 C-2 8 -2 8 -6 8 C-6 7.34 -6 6.68 -6 6 C-6.598125 6.226875 -7.19625 6.45375 -7.8125 6.6875 C-8.534375 6.790625 -9.25625 6.89375 -10 7 C-11.75 5.5625 -11.75 5.5625 -13 4 C-10.36 4 -7.72 4 -5 4 C-4.67 3.34 -4.34 2.68 -4 2 C-3.67 2.99 -3.34 3.98 -3 5 C-2.525625 4.175 -2.05125 3.35 -1.5625 2.5 C-1.046875 1.675 -0.53125 0.85 0 0 Z " fill="#878789" transform="translate(607,197)"/>
<path d="M0 0 C0.99 0.66 1.98 1.32 3 2 C3.26518132 6.17660573 3.31886422 9.04340734 2 13 C-0.97 13 -3.94 13 -7 13 C-7.33 11.35 -7.66 9.7 -8 8 C-7.34 8 -6.68 8 -6 8 C-6 9.32 -6 10.64 -6 12 C-4.35 12 -2.7 12 -1 12 C-1 11.34 -1 10.68 -1 10 C-0.34 10 0.32 10 1 10 C0.67 6.7 0.34 3.4 0 0 Z " fill="#FEDACD" transform="translate(594,274)"/>
<path d="M0 0 C0.33 0 0.66 0 1 0 C1 1.65 1 3.3 1 5 C1.99 5.33 2.98 5.66 4 6 C3.67 7.32 3.34 8.64 3 10 C-1.70552147 8.55214724 -1.70552147 8.55214724 -3 6.125 C-3 3.23581639 -1.92861423 2.07696917 0 0 Z M4 4 C5.65 4 7.3 4 9 4 C8.67 4.66 8.34 5.32 8 6 C6.68 5.67 5.36 5.34 4 5 C4 4.67 4 4.34 4 4 Z " fill="#949494" transform="translate(619,196)"/>
<path d="M0 0 C0.33 0.99 0.66 1.98 1 3 C1.85271484 2.93039062 1.85271484 2.93039062 2.72265625 2.859375 C8.7741545 2.57650029 11.99759562 3.59410766 17 7 C17 7.99 17 8.98 17 10 C16.47921875 9.52949219 15.9584375 9.05898438 15.421875 8.57421875 C12.36207873 6.58535118 9.85472891 6.28111476 6.25 5.8125 C4.49429688 5.57466797 4.49429688 5.57466797 2.703125 5.33203125 C1.81109375 5.22246094 0.9190625 5.11289062 0 5 C0 3.35 0 1.7 0 0 Z " fill="#EF7763" transform="translate(587,261)"/>
<path d="M0 0 C1.32 0 2.64 0 4 0 C4 0.66 4 1.32 4 2 C4.99 2.33 5.98 2.66 7 3 C7.1081866 5.58445773 7.18737237 8.16437352 7.25 10.75 C7.28351562 11.47960937 7.31703125 12.20921875 7.3515625 12.9609375 C7.41902625 16.67144375 7.34327652 18.57156961 4.984375 21.515625 C4.32953125 22.00546875 3.6746875 22.4953125 3 23 C2.67 22.01 2.34 21.02 2 20 C2.66 20 3.32 20 4 20 C5.54297613 15.37107161 5.64654625 10.82846242 5 6 C3.59538643 3.41668974 2.19020993 2.02594419 0 0 Z " fill="#FDD7CB" transform="translate(696,250)"/>
<path d="M0 0 C0.33 0 0.66 0 1 0 C1 3.3 1 6.6 1 10 C-1.31 10 -3.62 10 -6 10 C-6 8.02 -6 6.04 -6 4 C-4.35 3.34 -2.7 2.68 -1 2 C-1.020625 2.969375 -1.04125 3.93875 -1.0625 4.9375 C-1.35618499 7.87465895 -1.35618499 7.87465895 0 9 C0 6.03 0 3.06 0 0 Z " fill="#949495" transform="translate(677,196)"/>
<path d="M0 0 C0 0.99 0 1.98 0 3 C-4.40914783 4.10228696 -8.48382401 4.07654536 -13 4 C-12.67 3.01 -12.34 2.02 -12 1 C-7.95858806 0.36605303 -4.0934693 -0.12404452 0 0 Z " fill="#FD5230" transform="translate(696,291)"/>
<path d="M0 0 C0.08086147 1.79093191 0.13912702 3.58289628 0.1875 5.375 C0.22230469 6.37273437 0.25710938 7.37046875 0.29296875 8.3984375 C0.19628906 9.25695312 0.09960938 10.11546875 0 11 C-0.99 11.66 -1.98 12.32 -3 13 C-2.67447917 10.98177083 -2.34895833 8.96354167 -2.0234375 6.9453125 C-2.01570312 6.30335938 -2.00796875 5.66140625 -2 5 C-4.35953094 2.64046906 -5.77895617 2.50858587 -9 2 C-9 1.34 -9 0.68 -9 0 C-3.375 -1.125 -3.375 -1.125 0 0 Z " fill="#EE6447" transform="translate(801,255)"/>
<path d="M0 0 C0.33 0.66 0.66 1.32 1 2 C1.99 2.33 2.98 2.66 4 3 C3.247626 11.87801315 3.247626 11.87801315 0 16 C-0.99 16.33 -1.98 16.66 -3 17 C-2.37240135 14.07120629 -1.41377341 11.63904371 0 9 C0.66 9 1.32 9 2 9 C2 7.35 2 5.7 2 4 C1.34 4 0.68 4 0 4 C0 2.68 0 1.36 0 0 Z " fill="#DB5A6E" transform="translate(325,248)"/>
<path d="M0 0 C0.83789062 0.48082031 1.67578125 0.96164062 2.5390625 1.45703125 C6.34741638 3.15488654 9.22826558 3.49189932 13.375 3.6875 C15.24285156 3.78611328 15.24285156 3.78611328 17.1484375 3.88671875 C18.08945312 3.92410156 19.03046875 3.96148437 20 4 C19.67 4.66 19.34 5.32 19 6 C12.99141528 6.21761474 7.6098539 6.33743912 2 4 C0.5625 1.875 0.5625 1.875 0 0 Z " fill="#FDDFD5" transform="translate(674,292)"/>
<path d="M0 0 C0.33 0 0.66 0 1 0 C1.33 5.28 1.66 10.56 2 16 C3.98 16.66 5.96 17.32 8 18 C8 18.33 8 18.66 8 19 C2.375 19.25 2.375 19.25 -1 17 C-1.328125 15.1171875 -1.328125 15.1171875 -1.25 12.875 C-1.22421875 12.07964844 -1.1984375 11.28429687 -1.171875 10.46484375 C-0.92657077 6.94695804 -0.50761754 3.48987058 0 0 Z " fill="#E56D55" transform="translate(578,256)"/>
<path d="M0 0 C1.32 0.33 2.64 0.66 4 1 C4 4.96 4 8.92 4 13 C3.67 13 3.34 13 3 13 C2.67 9.7 2.34 6.4 2 3 C1.54625 3.78375 1.0925 4.5675 0.625 5.375 C-1 8 -1 8 -3 10 C-3.33 8.02 -3.66 6.04 -4 4 C-3.01 3.67 -2.02 3.34 -1 3 C-0.67 2.01 -0.34 1.02 0 0 Z " fill="#EB684F" transform="translate(722,264)"/>
<path d="M0 0 C2 2 2 2 2.3125 5.1875 C1.95717884 9.52241809 0.89596629 12.12906883 -1 16 C-1.66 16 -2.32 16 -3 16 C-3.75 13.25 -3.75 13.25 -4 10 C-2.68799596 8.64567325 -1.35368596 7.31266518 0 6 C0.33448259 2.832168 0.33448259 2.832168 0 0 Z " fill="#E4586E" transform="translate(286,212)"/>
<path d="M0 0 C2.0625 1.6875 2.0625 1.6875 4 4 C3.75 6.75 3.75 6.75 3 9 C2.34 9 1.68 9 1 9 C0.67 9.66 0.34 10.32 0 11 C-0.28875 10.195625 -0.5775 9.39125 -0.875 8.5625 C-1.73262568 5.8673532 -1.73262568 5.8673532 -4 5 C-3.34 5 -2.68 5 -2 5 C-2 4.34 -2 3.68 -2 3 C-1.34 2.67 -0.68 2.34 0 2 C0 1.34 0 0.68 0 0 Z " fill="#979799" transform="translate(534,184)"/>
<path d="M0 0 C0.66 0 1.32 0 2 0 C3.40248912 2.80497823 3.16979056 5.18501365 3.1875 8.3125 C3.20167969 9.44300781 3.21585938 10.57351563 3.23046875 11.73828125 C2.94123734 15.83164105 2.12969755 18.73995274 -0.625 21.8125 C-1.07875 22.204375 -1.5325 22.59625 -2 23 C-2.66 22.67 -3.32 22.34 -4 22 C-3.6390625 21.55011719 -3.278125 21.10023438 -2.90625 20.63671875 C1.27040392 14.84741234 1.79479659 10.02827267 1 3 C0.67 2.01 0.34 1.02 0 0 Z " fill="#FBC9BD" transform="translate(772,253)"/>
<path d="M0 0 C3.48331435 3.01887244 4.79157144 5.56909529 6 10 C6.66 10 7.32 10 8 10 C7.67 10.66 7.34 11.32 7 12 C5.68 12 4.36 12 3 12 C2.67 12.66 2.34 13.32 2 14 C1.67 13.01 1.34 12.02 1 11 C1.33 10.34 1.66 9.68 2 9 C2 7.68 2 6.36 2 5 C1.34 5.66 0.68 6.32 0 7 C0 4.69 0 2.38 0 0 Z " fill="#959597" transform="translate(467,182)"/>
<path d="M0 0 C0.99 0.33 1.98 0.66 3 1 C3.625 3.875 3.625 3.875 4 7 C3.34 7.66 2.68 8.32 2 9 C2 8.34 2 7.68 2 7 C0.68 7.99 -0.64 8.98 -2 10 C-2 7.69 -2 5.38 -2 3 C-1.34 2.67 -0.68 2.34 0 2 C0 1.34 0 0.68 0 0 Z " fill="#868688" transform="translate(688,181)"/>
<path d="M0 0 C1.17936673 4.02372178 0.91465902 6.17068196 -1 10 C-3.24841046 11.68889818 -5.44403998 12.76935258 -8 14 C-6.46162154 10.80375738 -4.71133468 7.78394426 -2.875 4.75 C-2.33617187 3.85796875 -1.79734375 2.9659375 -1.2421875 2.046875 C-0.62730469 1.03367187 -0.62730469 1.03367187 0 0 Z " fill="#F06C53" transform="translate(885,262)"/>
<path d="M0 0 C2 2 2 2 2 4 C1.01 4.495 1.01 4.495 0 5 C2.31 5.33 4.62 5.66 7 6 C7 6.33 7 6.66 7 7 C1.60550707 7.27429625 -1.51925805 7.36055646 -6 4 C-5.34 3.67 -4.68 3.34 -4 3 C-4 2.34 -4 1.68 -4 1 C-2.125 0.375 -2.125 0.375 0 0 Z " fill="#A0A0A2" transform="translate(708,200)"/>
<path d="M0 0 C4 4.82051282 4 4.82051282 4 8 C2.68 7.34 1.36 6.68 0 6 C0 4.68 0 3.36 0 2 C-6.08408472 1.80185739 -6.08408472 1.80185739 -12 3 C-8.00223142 -1.17948533 -5.75395 -1.48809052 0 0 Z " fill="#D96677" transform="translate(279,200)"/>
<path d="M0 0 C-0.185625 0.928125 -0.37125 1.85625 -0.5625 2.8125 C-1.24123881 6.01343771 -1.24123881 6.01343771 0 9 C-0.99 10.485 -0.99 10.485 -2 12 C-2.99 11.67 -3.98 11.34 -5 11 C-4.67 8.36 -4.34 5.72 -4 3 C-4.66 2.67 -5.32 2.34 -6 2 C-6 1.34 -6 0.68 -6 0 C-3.50907189 -1.24546405 -2.58919267 -0.7767578 0 0 Z " fill="#FBD2D7" transform="translate(332,248)"/>
<path d="M0 0 C0.75 1.75 0.75 1.75 1 4 C-1.38825307 7.09588361 -3.20629781 8.34022571 -7 9 C-9.08234592 9.06743348 -11.16668557 9.08514472 -13.25 9.0625 C-14.32765625 9.05347656 -15.4053125 9.04445313 -16.515625 9.03515625 C-17.33546875 9.02355469 -18.1553125 9.01195312 -19 9 C-19 8.67 -19 8.34 -19 8 C-18.28714844 7.98582031 -17.57429687 7.97164063 -16.83984375 7.95703125 C-9.94517182 7.61368958 -6.17915784 6.6162059 -1 2 C-0.67 1.34 -0.34 0.68 0 0 Z " fill="#FDCEBF" transform="translate(979,288)"/>
<path d="M0 0 C2.97 0 5.94 0 9 0 C9 1.98 9 3.96 9 6 C6.03 6 3.06 6 0 6 C0 5.67 0 5.34 0 5 C1.65 5 3.3 5 5 5 C5 4.01 5 3.02 5 2 C3.35 1.67 1.7 1.34 0 1 C0 0.67 0 0.34 0 0 Z " fill="#9F9FA0" transform="translate(562,189)"/>
<path d="M0 0 C0.99 0 1.98 0 3 0 C3 1.65 3 3.3 3 5 C-0.63 5 -4.26 5 -8 5 C-8 4.34 -8 3.68 -8 3 C-6.865625 2.87625 -5.73125 2.7525 -4.5625 2.625 C-3.386875 2.41875 -2.21125 2.2125 -1 2 C-0.67 1.34 -0.34 0.68 0 0 Z " fill="#FE522F" transform="translate(662,273)"/>
<path d="M0 0 C0 0.66 0 1.32 0 2 C-0.64066406 2.04898438 -1.28132812 2.09796875 -1.94140625 2.1484375 C-7.21196085 2.6040145 -11.96986288 3.3597379 -17 5 C-12.0361293 -0.69925895 -7.09031649 -0.12017486 0 0 Z " fill="#ED6851" transform="translate(800,248)"/>
<path d="M0 0 C0.8125 1.6875 0.8125 1.6875 1 4 C-1.375 6.625 -1.375 6.625 -4 9 C-4.33 9.66 -4.66 10.32 -5 11 C-7.5625 11.625 -7.5625 11.625 -10 12 C-9.61328125 11.55269531 -9.2265625 11.10539062 -8.828125 10.64453125 C-5.81609925 7.1478974 -2.85678969 3.62592537 0 0 Z " fill="#F07B66" transform="translate(797,268)"/>
<path d="M0 0 C1.98 0.99 1.98 0.99 4 2 C4.02696365 3.79158489 4.04637917 5.58328473 4.0625 7.375 C4.07410156 8.37273437 4.08570313 9.37046875 4.09765625 10.3984375 C4 13 4 13 3 15 C2.34 15 1.68 15 1 15 C1.01160156 14.16855469 1.02320313 13.33710938 1.03515625 12.48046875 C1.04417969 11.39378906 1.05320312 10.30710937 1.0625 9.1875 C1.07410156 8.10855469 1.08570313 7.02960938 1.09765625 5.91796875 C1.13624766 2.93487831 1.13624766 2.93487831 0 0 Z " fill="#FDDFD1" transform="translate(568,253)"/>
<path d="M0 0 C0.66 0.33 1.32 0.66 2 1 C1.67 1.99 1.34 2.98 1 4 C0.01 4 -0.98 4 -2 4 C-2 7.96 -2 11.92 -2 16 C-4.45193779 12.32209331 -4.71511798 9.27407725 -4 5 C-2 2 -2 2 0 0 Z " fill="#EE735C" transform="translate(544,251)"/>
<path d="M0 0 C-2.38573379 1.89213369 -4.07175348 3.02391783 -7 4 C-7.33 6.64 -7.66 9.28 -8 12 C-6.02 12.495 -6.02 12.495 -4 13 C-5.65 13 -7.3 13 -9 13 C-9.08121924 11.39667209 -9.13929134 9.79215974 -9.1875 8.1875 C-9.22230469 7.29417969 -9.25710938 6.40085937 -9.29296875 5.48046875 C-9 3 -9 3 -7.6875 1.1875 C-5.17517337 -0.58043356 -2.9827587 -0.19885058 0 0 Z " fill="#FEE8DB" transform="translate(850,252)"/>
<path d="M0 0 C0 2.64 0 5.28 0 8 C-0.33 8 -0.66 8 -1 8 C-1 5.69 -1 3.38 -1 1 C-2.546875 1.7425 -2.546875 1.7425 -4.125 2.5 C-7.52451578 3.97473902 -10.27021549 4.27291106 -14 4 C-13 2 -13 2 -9.8125 0.875 C-6.36250398 0.08319763 -3.515707 -0.1714979 0 0 Z " fill="#E5694E" transform="translate(634,250)"/>
<path d="M0 0 C0.99 0 1.98 0 3 0 C3 2.64 3 5.28 3 8 C2.34 8 1.68 8 1 8 C1 9.32 1 10.64 1 12 C0.34 12 -0.32 12 -1 12 C-0.67 8.04 -0.34 4.08 0 0 Z " fill="#FFDFD0" transform="translate(703,278)"/>
<path d="M0 0 C0.66 0.33 1.32 0.66 2 1 C2 2.98 2 4.96 2 7 C4.475 7.99 4.475 7.99 7 9 C4 11 4 11 1 11 C0.67 11.99 0.34 12.98 0 14 C-1.13016601 8.97703996 -0.77916092 5.02125926 0 0 Z " fill="#F26549" transform="translate(959,258)"/>
<path d="M0 0 C0.33 0 0.66 0 1 0 C1.33663062 3.70293685 1.47736015 5.39534381 -0.875 8.375 C-3 10 -3 10 -5 10 C-5 10.66 -5 11.32 -5 12 C-5.66 11.67 -6.32 11.34 -7 11 C-5.85845641 9.16399255 -4.71165684 7.33125195 -3.5625 5.5 C-2.92441406 4.4790625 -2.28632812 3.458125 -1.62890625 2.40625 C-0.82259766 1.21515625 -0.82259766 1.21515625 0 0 Z " fill="#EF6D51" transform="translate(718,259)"/>
<path d="M0 0 C0.66 0 1.32 0 2 0 C2 3.63 2 7.26 2 11 C2.99 11.33 3.98 11.66 5 12 C4.67 12.99 4.34 13.98 4 15 C1.49464087 12.65122581 0.09435091 10.9088213 -0.265625 7.44140625 C-0.25149142 4.95036325 -0.17369194 2.48475972 0 0 Z " fill="#E7755E" transform="translate(949,256)"/>
<path d="M0 0 C1.65 0 3.3 0 5 0 C5 1.98 5 3.96 5 6 C3.35 6 1.7 6 0 6 C0 4.02 0 2.04 0 0 Z " fill="#FBFDFA" transform="translate(553,259)"/>
<path d="M0 0 C0 0.66 0 1.32 0 2 C-0.969375 1.67 -1.93875 1.34 -2.9375 1 C-8.86361241 -0.69489219 -15.04373138 -0.53710158 -21 1 C-21 0.34 -21 -0.32 -21 -1 C-14.41053892 -3.19648703 -6.34195101 -2.81864489 0 0 Z " fill="#FEE2D6" transform="translate(514,249)"/>
<path d="M0 0 C0.66 0 1.32 0 2 0 C2 0.66 2 1.32 2 2 C2.99 2 3.98 2 5 2 C5 5.96 5 9.92 5 14 C4.67 14 4.34 14 4 14 C3.67 10.7 3.34 7.4 3 4 C2.01 4.99 1.02 5.98 0 7 C-1.125 2.25 -1.125 2.25 0 0 Z " fill="#F2684E" transform="translate(890,263)"/>
<path d="M0 0 C0.66 0.33 1.32 0.66 2 1 C1.34 4.96 0.68 8.92 0 13 C-2 11 -2 11 -2.265625 8.90625 C-2.25789062 7.71515625 -2.25789062 7.71515625 -2.25 6.5 C-2.25515625 5.7059375 -2.2603125 4.911875 -2.265625 4.09375 C-2 2 -2 2 0 0 Z " fill="#FEEBE5" transform="translate(948,275)"/>
<path d="M0 0 C2.28804937 1.65883579 3.56463437 2.62283307 5 5 C5.44207004 8.70298665 5.29251428 12.28831877 5 16 C4.67 16 4.34 16 4 16 C4 12.7 4 9.4 4 6 C2.68 5.67 1.36 5.34 0 5 C0 3.35 0 1.7 0 0 Z " fill="#EB6953" transform="translate(698,272)"/>
<path d="M0 0 C0.33 0 0.66 0 1 0 C1.39058477 11.17506436 1.39058477 11.17506436 -1 15 C-2.31094303 15.70968345 -3.64328378 16.38230806 -5 17 C-4.360625 15.865625 -3.72125 14.73125 -3.0625 13.5625 C-0.80237891 9.09816188 -0.22937207 4.95443682 0 0 Z " fill="#FBCABC" transform="translate(518,258)"/>
<path d="M0 0 C2 2 2 2 2.125 4.625 C2.08375 5.40875 2.0425 6.1925 2 7 C1.67 5.68 1.34 4.36 1 3 C-1.31 2.67 -3.62 2.34 -6 2 C-6 3.98 -6 5.96 -6 8 C-6.33 8 -6.66 8 -7 8 C-7 5.69 -7 3.38 -7 1 C-4.48718205 -0.25640898 -2.78302919 -0.20872719 0 0 Z " fill="#FECEBD" transform="translate(690,257)"/>
<path d="M0 0 C1.05960938 0.00676758 1.05960938 0.00676758 2.140625 0.01367188 C3.88545275 0.02546125 5.630237 0.04339676 7.375 0.0625 C7.375 0.7225 7.375 1.3825 7.375 2.0625 C6.56675781 2.05089844 5.75851562 2.03929687 4.92578125 2.02734375 C3.32283203 2.01380859 3.32283203 2.01380859 1.6875 2 C0.63175781 1.98839844 -0.42398438 1.97679687 -1.51171875 1.96484375 C-4.34910262 2.05384575 -6.8688919 2.41310162 -9.625 3.0625 C-9.625 2.4025 -9.625 1.7425 -9.625 1.0625 C-6.55966836 -0.47016582 -3.35745728 -0.04026471 0 0 Z " fill="#FEE4D8" transform="translate(964.625,246.9375)"/>
<path d="M0 0 C0 0.66 0 1.32 0 2 C-2 4 -2 4 -4.625 4.125 C-5.40875 4.08375 -6.1925 4.0425 -7 4 C-7 3.34 -7 2.68 -7 2 C-7.99 1.67 -8.98 1.34 -10 1 C-6.78548731 -0.60725635 -3.56387464 -0.05748185 0 0 Z " fill="#868688" transform="translate(716,178)"/>
<path d="M0 0 C0.66 0 1.32 0 2 0 C1.09729807 3.69287153 0.59508949 5.55368289 -2.5 7.875 C-5 9 -5 9 -7 9 C-7.33 7.68 -7.66 6.36 -8 5 C-6.02 5 -4.04 5 -2 5 C-1.34 3.35 -0.68 1.7 0 0 Z " fill="#ED745D" transform="translate(605,286)"/>
<path d="M0 0 C0.33 0.66 0.66 1.32 1 2 C0.02065076 3.67888441 -0.98343919 5.34338239 -2 7 C-2.71143088 8.98451771 -3.38991336 10.98202112 -4 13 C-4.33 13 -4.66 13 -5 13 C-5.61538462 5.73846154 -5.61538462 5.73846154 -2.5 2 C-1.675 1.34 -0.85 0.68 0 0 Z " fill="#EC6348" transform="translate(493,282)"/>
<path d="M0 0 C0.66 0 1.32 0 2 0 C2 0.66 2 1.32 2 2 C8.93 2.495 8.93 2.495 16 3 C16 3.33 16 3.66 16 4 C10.39 4 4.78 4 -1 4 C-0.67 2.68 -0.34 1.36 0 0 Z " fill="#FED9CA" transform="translate(796,283)"/>
<path d="M0 0 C2.12563103 0.11376617 4.2505261 0.24135631 6.375 0.375 C8.15003906 0.47941406 8.15003906 0.47941406 9.9609375 0.5859375 C13 1 13 1 15 3 C14.35933594 2.98839844 13.71867187 2.97679687 13.05859375 2.96484375 C7.91346778 2.91116881 3.06975076 3.11830422 -2 4 C-2 3.34 -2 2.68 -2 2 C-1.34 2 -0.68 2 0 2 C0 1.34 0 0.68 0 0 Z " fill="#F06E55" transform="translate(462,263)"/>
<path d="M0 0 C2.97 0.495 2.97 0.495 6 1 C6 2.32 6 3.64 6 5 C7.32 5.33 8.64 5.66 10 6 C10 6.66 10 7.32 10 8 C4.98886765 6.5682479 3.05530451 4.01554307 0 0 Z " fill="#E15F75" transform="translate(286,250)"/>
<path d="M0 0 C2.58460291 1.29230145 2.89944036 2.35865687 4 5 C4.57115353 7.39884483 5 9.53536001 5 12 C3.046875 11.3203125 3.046875 11.3203125 1 10 C0.390625 7.6171875 0.390625 7.6171875 0.25 4.875 C0.19328125 3.96492187 0.1365625 3.05484375 0.078125 2.1171875 C0.05234375 1.41851562 0.0265625 0.71984375 0 0 Z " fill="#848486" transform="translate(465,181)"/>
<path d="M0 0 C0.33 0.99 0.66 1.98 1 3 C2.65 3 4.3 3 6 3 C5.67 3.99 5.34 4.98 5 6 C4.34 6 3.68 6 3 6 C2.67 6.66 2.34 7.32 2 8 C0.4375 6.8125 0.4375 6.8125 -1 5 C-0.6875 2.3125 -0.6875 2.3125 0 0 Z " fill="#F35C3B" transform="translate(695,264)"/>
<path d="M0 0 C0.66 0 1.32 0 2 0 C2.66 1.32 3.32 2.64 4 4 C4.99 3.01 5.98 2.02 7 1 C6.67 3.31 6.34 5.62 6 8 C3 8 3 8 1 7 C0.59270772 4.67843403 0.25561323 2.3431213 0 0 Z " fill="#F5593C" transform="translate(507,258)"/>
<path d="M0 0 C-1.32 0.33 -2.64 0.66 -4 1 C-4 1.66 -4 2.32 -4 3 C-6.875 3.625 -6.875 3.625 -10 4 C-10.66 3.34 -11.32 2.68 -12 2 C-7.8794254 0.00214565 -4.54805635 -0.17835515 0 0 Z " fill="#EF6A51" transform="translate(860,251)"/>
<path d="M0 0 C0.33 0.99 0.66 1.98 1 3 C0 4 0 4 -3.4375 4.1875 C-7 4 -7 4 -9 2 C-5.5647952 -0.29013653 -4.014669 -0.17842973 0 0 Z " fill="#858587" transform="translate(715,202)"/>
<path d="M0 0 C3.63 0 7.26 0 11 0 C10.67 0.99 10.34 1.98 10 3 C7.03 3 4.06 3 1 3 C0.67 2.01 0.34 1.02 0 0 Z " fill="#8F8F91" transform="translate(432,178)"/>
<path d="M0 0 C2.375 -0.1875 2.375 -0.1875 5 0 C7 3 7 3 6.625 6.1875 C6.41875 7.115625 6.2125 8.04375 6 9 C5.67 9 5.34 9 5 9 C4.67 7.02 4.34 5.04 4 3 C2.35 2.67 0.7 2.34 -1 2 C-0.67 1.34 -0.34 0.68 0 0 Z " fill="#FFD7C8" transform="translate(962,257)"/>
<path d="M0 0 C0.99 0.66 1.98 1.32 3 2 C2.67 3.32 2.34 4.64 2 6 C0.68 5.67 -0.64 5.34 -2 5 C-1.34 3.35 -0.68 1.7 0 0 Z M-5 5 C-4.01 5.33 -3.02 5.66 -2 6 C-2.99 6.99 -3.98 7.98 -5 9 C-5 7.68 -5 6.36 -5 5 Z " fill="#F8EEEC" transform="translate(332,255)"/>
<path d="M0 0 C2.375 0.25 2.375 0.25 5 1 C6.375 2.9375 6.375 2.9375 7 5 C6.67 5.66 6.34 6.32 6 7 C1.125 3.375 1.125 3.375 0 0 Z " fill="#E25C70" transform="translate(279,243)"/>
<path d="M0 0 C0 1.65 0 3.3 0 5 C-1.65 5.33 -3.3 5.66 -5 6 C-5.33 5.01 -5.66 4.02 -6 3 C-1.125 0 -1.125 0 0 0 Z " fill="#F8542D" transform="translate(566,288)"/>
<path d="M0 0 C0.66 0 1.32 0 2 0 C2.66 1.98 3.32 3.96 4 6 C2.35 6.66 0.7 7.32 -1 8 C-0.67 5.36 -0.34 2.72 0 0 Z " fill="#F8D6D8" transform="translate(265,226)"/>
<path d="M0 0 C2.875 -0.125 2.875 -0.125 6 0 C8 2 8 2 8.125 5.125 C8.08375 6.07375 8.0425 7.0225 8 8 C7.67 8 7.34 8 7 8 C7 6.35 7 4.7 7 3 C4.36 2.67 1.72 2.34 -1 2 C-0.67 1.34 -0.34 0.68 0 0 Z " fill="#FEC6B5" transform="translate(756,257)"/>
<path d="M0 0 C2.875 -0.125 2.875 -0.125 6 0 C8 2 8 2 8.125 5.125 C8.08375 6.07375 8.0425 7.0225 8 8 C7.67 8 7.34 8 7 8 C7 6.35 7 4.7 7 3 C4.36 2.67 1.72 2.34 -1 2 C-0.67 1.34 -0.34 0.68 0 0 Z " fill="#FEC6B5" transform="translate(500,257)"/>
<path d="M0 0 C1.98 0 3.96 0 6 0 C6.33 1.32 6.66 2.64 7 4 C7.99 4 8.98 4 10 4 C10 4.66 10 5.32 10 6 C6.00499382 4.6302836 3.19990508 2.74277578 0 0 Z " fill="#E06476" transform="translate(296,258)"/>
<path d="M0 0 C1.65 0.99 3.3 1.98 5 3 C4.01 3.495 4.01 3.495 3 4 C2.34786708 6.02463255 2.34786708 6.02463255 2 8 C1.34 8 0.68 8 0 8 C0 5.36 0 2.72 0 0 Z " fill="#FAE0E0" transform="translate(281,247)"/>
<path d="M0 0 C-1.04874998 2.62187494 -1.64931313 3.79371361 -4.125 5.25 C-4.74375 5.4975 -5.3625 5.745 -6 6 C-5.67 4.35 -5.34 2.7 -5 1 C-2 0 -2 0 0 0 Z " fill="#ED6046" transform="translate(702,288)"/>
<path d="M0 0 C0.66 0 1.32 0 2 0 C1.67 3.3 1.34 6.6 1 10 C0.34 10 -0.32 10 -1 10 C-1.02689216 8.52093108 -1.04634621 7.04172517 -1.0625 5.5625 C-1.07410156 4.73878906 -1.08570313 3.91507812 -1.09765625 3.06640625 C-1 1 -1 1 0 0 Z " fill="#FFEEE4" transform="translate(874,276)"/>
<path d="M0 0 C0.763125 0.0825 1.52625 0.165 2.3125 0.25 C0.6625 1.9 -0.9875 3.55 -2.6875 5.25 C-3.6775 4.92 -4.6675 4.59 -5.6875 4.25 C-3.34903846 0.31153846 -3.34903846 0.31153846 0 0 Z " fill="#F2674B" transform="translate(788.6875,279.75)"/>
<path d="M0 0 C1.98 0.99 1.98 0.99 4 2 C4 6.62 4 11.24 4 16 C3.67 16 3.34 16 3 16 C2.95101563 15.18015625 2.90203125 14.3603125 2.8515625 13.515625 C2.77679688 12.43796875 2.70203125 11.3603125 2.625 10.25 C2.55539062 9.18265625 2.48578125 8.1153125 2.4140625 7.015625 C2.0271777 4.19793568 1.44313834 2.4169634 0 0 Z " fill="#FFE8DC" transform="translate(481,268)"/>
<path d="M0 0 C0.66 0 1.32 0 2 0 C1.67 3.96 1.34 7.92 1 12 C0.67 12 0.34 12 0 12 C0 9.36 0 6.72 0 4 C-0.66 4 -1.32 4 -2 4 C-1.34 2.68 -0.68 1.36 0 0 Z " fill="#F8C2CC" transform="translate(261,204)"/>
<path d="M0 0 C0.33 0 0.66 0 1 0 C1.33 2.97 1.66 5.94 2 9 C0.68 8.67 -0.64 8.34 -2 8 C-1.125 1.125 -1.125 1.125 0 0 Z " fill="#EE6348" transform="translate(958,279)"/>
<path d="M0 0 C0 2.31 0 4.62 0 7 C-0.99 7 -1.98 7 -3 7 C-3.6875 5.1875 -3.6875 5.1875 -4 3 C-1.64285714 0 -1.64285714 0 0 0 Z " fill="#FEF5EF" transform="translate(724,269)"/>
<path d="M0 0 C4 6 4 6 3.75 8.125 C3 10 3 10 1 11 C0.67 7.37 0.34 3.74 0 0 Z " fill="#FED8CC" transform="translate(540,264)"/>
<path d="M0 0 C1.60031344 3.20062687 0.03173691 5.72271806 -1 9 C-1.99 8.67 -2.98 8.34 -4 8 C-4 6.02 -4 4.04 -4 2 C-3.67 2.66 -3.34 3.32 -3 4 C-2.34 4 -1.68 4 -1 4 C-0.67 2.68 -0.34 1.36 0 0 Z " fill="#FEEAE1" transform="translate(779,256)"/>
<path d="M0 0 C0.598125 0.20625 1.19625 0.4125 1.8125 0.625 C0.6059375 1.181875 0.6059375 1.181875 -0.625 1.75 C-3.49922896 3.4359337 -3.49922896 3.4359337 -4 6.8125 C-4.061875 7.740625 -4.12375 8.66875 -4.1875 9.625 C-4.5175 9.625 -4.8475 9.625 -5.1875 9.625 C-5.48046875 3.5703125 -5.48046875 3.5703125 -5.1875 1.625 C-2.1875 -0.375 -2.1875 -0.375 0 0 Z " fill="#E87866" transform="translate(618.1875,254.375)"/>
<path d="M0 0 C1.65 0 3.3 0 5 0 C5.66 1.32 6.32 2.64 7 4 C6.67 4.33 6.34 4.66 6 5 C5.01 5 4.02 5 3 5 C1.3125 2.5 1.3125 2.5 0 0 Z " fill="#F9D6D8" transform="translate(288,232)"/>
<path d="M0 0 C0.66 0 1.32 0 2 0 C2.144375 1.11375 2.28875 2.2275 2.4375 3.375 C2.78372035 6.82142047 2.78372035 6.82142047 4 9 C2.68 9 1.36 9 0 9 C0 6.03 0 3.06 0 0 Z " fill="#ED6148" transform="translate(680,278)"/>
<path d="M0 0 C1.32 0 2.64 0 4 0 C4 3 4 3 3 5 C1.68 4.67 0.36 4.34 -1 4 C-0.67 2.68 -0.34 1.36 0 0 Z " fill="#FB542F" transform="translate(758,275)"/>
<path d="M0 0 C0.66 0.66 1.32 1.32 2 2 C1.67 2.66 1.34 3.32 1 4 C2.32 4.33 3.64 4.66 5 5 C2.69 5.66 0.38 6.32 -2 7 C-2 5.35 -2 3.7 -2 2 C-1.34 2 -0.68 2 0 2 C0 1.34 0 0.68 0 0 Z " fill="#F46042" transform="translate(553,271)"/>
<path d="M0 0 C0.66 0 1.32 0 2 0 C1.34 4.29 0.68 8.58 0 13 C-0.33 13 -0.66 13 -1 13 C-1.02696365 11.20841511 -1.04637917 9.41671527 -1.0625 7.625 C-1.07410156 6.62726563 -1.08570313 5.62953125 -1.09765625 4.6015625 C-1 2 -1 2 0 0 Z " fill="#FEE7DB" transform="translate(672,253)"/>
<path d="M0 0 C2.97 0.495 2.97 0.495 6 1 C5.38125 1.185625 4.7625 1.37125 4.125 1.5625 C0.94397134 3.71437233 0.80548053 6.37533763 0 10 C-0.33 10 -0.66 10 -1 10 C-1.125 3.375 -1.125 3.375 0 0 Z " fill="#E9674E" transform="translate(551,255)"/>
<path d="M0 0 C0.99 0.33 1.98 0.66 3 1 C2.34 1 1.68 1 1 1 C0.67 2.32 0.34 3.64 0 5 C-2.475 4.01 -2.475 4.01 -5 3 C-2 1 -2 1 0 0 Z " fill="#F9D4D9" transform="translate(322,240)"/>
<path d="M0 0 C0.33 0.99 0.66 1.98 1 3 C0.01 3.33 -0.98 3.66 -2 4 C-3.20882096 6.00016466 -3.20882096 6.00016466 -4 8 C-4.99 8 -5.98 8 -7 8 C-4.69 5.36 -2.38 2.72 0 0 Z " fill="#FEDFD0" transform="translate(805,274)"/>
<path d="M0 0 C5.625 -0.25 5.625 -0.25 9 2 C8.67 2.99 8.34 3.98 8 5 C5.36 3.68 2.72 2.36 0 1 C0 0.67 0 0.34 0 0 Z " fill="#FED5C7" transform="translate(763,248)"/>
<path d="M0 0 C1.60725635 3.21451269 1.05748185 6.43612536 1 10 C-0.5625 8.875 -0.5625 8.875 -2 7 C-1.56521739 1.56521739 -1.56521739 1.56521739 0 0 Z " fill="#FDD4D9" transform="translate(287,221)"/>
<path d="M0 0 C1.32 0 2.64 0 4 0 C3.67 1.32 3.34 2.64 3 4 C1.68 4 0.36 4 -1 4 C-0.67 2.68 -0.34 1.36 0 0 Z " fill="#F76047" transform="translate(792,283)"/>
<path d="M0 0 C0.99 0.33 1.98 0.66 3 1 C2.67 3.97 2.34 6.94 2 10 C1.67 10 1.34 10 1 10 C0.67 6.7 0.34 3.4 0 0 Z " fill="#FE522D" transform="translate(698,277)"/>
<path d="M0 0 C0.33 1.32 0.66 2.64 1 4 C1.99 4 2.98 4 4 4 C4.33 3.34 4.66 2.68 5 2 C5 2.99 5 3.98 5 5 C2.69 5 0.38 5 -2 5 C-2 4.01 -2 3.02 -2 2 C-1.34 2 -0.68 2 0 2 C0 1.34 0 0.68 0 0 Z " fill="#FEDBCF" transform="translate(925,272)"/>
<path d="M0 0 C0.66 0 1.32 0 2 0 C1.43628586 3.26954202 0.50037734 4.82575883 -2 7 C-2.66 6.67 -3.32 6.34 -4 6 C-2.7260411 3.96166576 -1.38938077 1.96147874 0 0 Z " fill="#FDD5C6" transform="translate(772,269)"/>
<path d="M0 0 C2.31 0 4.62 0 7 0 C7 0.66 7 1.32 7 2 C4.69 2.66 2.38 3.32 0 4 C0 2.68 0 1.36 0 0 Z " fill="#F75538" transform="translate(429,258)"/>
<path d="M0 0 C4.55384615 -0.36923077 4.55384615 -0.36923077 6.8125 1.5 C7.204375 1.995 7.59625 2.49 8 3 C7.34 3 6.68 3 6 3 C6 3.66 6 4.32 6 5 C5.34 5 4.68 5 4 5 C4 4.34 4 3.68 4 3 C2.68 2.34 1.36 1.68 0 1 C0 0.67 0 0.34 0 0 Z " fill="#949496" transform="translate(742,178)"/>
</svg>
